%TF.GenerationSoftware,KiCad,Pcbnew,(5.1.6)-1*%
%TF.CreationDate,2021-03-05T09:23:02-07:00*%
%TF.ProjectId,Main Control Board,4d61696e-2043-46f6-9e74-726f6c20426f,rev?*%
%TF.SameCoordinates,Original*%
%TF.FileFunction,Copper,L2,Bot*%
%TF.FilePolarity,Positive*%
%FSLAX46Y46*%
G04 Gerber Fmt 4.6, Leading zero omitted, Abs format (unit mm)*
G04 Created by KiCad (PCBNEW (5.1.6)-1) date 2021-03-05 09:23:02*
%MOMM*%
%LPD*%
G01*
G04 APERTURE LIST*
%TA.AperFunction,ComponentPad*%
%ADD10C,1.524000*%
%TD*%
%TA.AperFunction,ComponentPad*%
%ADD11R,1.524000X1.524000*%
%TD*%
%TA.AperFunction,ComponentPad*%
%ADD12C,1.600000*%
%TD*%
%TA.AperFunction,ComponentPad*%
%ADD13R,1.600000X1.600000*%
%TD*%
%TA.AperFunction,SMDPad,CuDef*%
%ADD14C,4.000000*%
%TD*%
%TA.AperFunction,ComponentPad*%
%ADD15O,1.700000X1.700000*%
%TD*%
%TA.AperFunction,ComponentPad*%
%ADD16R,1.700000X1.700000*%
%TD*%
%TA.AperFunction,ViaPad*%
%ADD17C,1.050000*%
%TD*%
%TA.AperFunction,Conductor*%
%ADD18C,0.381000*%
%TD*%
%TA.AperFunction,Conductor*%
%ADD19C,3.000000*%
%TD*%
%TA.AperFunction,Conductor*%
%ADD20C,0.500000*%
%TD*%
%TA.AperFunction,Conductor*%
%ADD21C,1.000000*%
%TD*%
%TA.AperFunction,Conductor*%
%ADD22C,0.254000*%
%TD*%
G04 APERTURE END LIST*
D10*
%TO.P,U5,8*%
%TO.N,N/C*%
X180160395Y-98880395D03*
%TO.P,U5,7*%
%TO.N,MISO*%
X180160395Y-96340395D03*
%TO.P,U5,6*%
%TO.N,MOSI*%
X182700395Y-98880395D03*
%TO.P,U5,5*%
%TO.N,SCK*%
X182700395Y-96340395D03*
%TO.P,U5,4*%
%TO.N,CSN*%
X185240395Y-98880395D03*
%TO.P,U5,3*%
%TO.N,CE*%
X185240395Y-96340395D03*
%TO.P,U5,2*%
%TO.N,+3V3*%
X187780395Y-98880395D03*
D11*
%TO.P,U5,1*%
%TO.N,GND*%
X187780395Y-96340395D03*
%TD*%
D12*
%TO.P,U1,20*%
%TO.N,SCK*%
X253312395Y-85164395D03*
%TO.P,U1,14*%
%TO.N,MISO*%
X268552395Y-85164395D03*
%TO.P,U1,21*%
%TO.N,CE*%
X253312395Y-87704395D03*
%TO.P,U1,22*%
%TO.N,CSN*%
X253312395Y-90244395D03*
%TO.P,U1,23*%
%TO.N,M2_ENCA*%
X253312395Y-92784395D03*
%TO.P,U1,24*%
%TO.N,M2_ENCB*%
X253312395Y-95324395D03*
%TO.P,U1,25*%
%TO.N,MPU_SDA*%
X253312395Y-97864395D03*
%TO.P,U1,26*%
%TO.N,MPU_SCL*%
X253312395Y-100404395D03*
%TO.P,U1,27*%
%TO.N,M1_ENCA*%
X253312395Y-102944395D03*
%TO.P,U1,28*%
%TO.N,M1_ENCB*%
X253312395Y-105484395D03*
%TO.P,U1,29*%
%TO.N,N/C*%
X253312395Y-108024395D03*
%TO.P,U1,30*%
X253312395Y-110564395D03*
%TO.P,U1,31*%
X253312395Y-113104395D03*
%TO.P,U1,32*%
%TO.N,GND*%
X253312395Y-115644395D03*
%TO.P,U1,33*%
%TO.N,+5V*%
X253312395Y-118184395D03*
%TO.P,U1,13*%
%TO.N,MOSI*%
X268552395Y-87704395D03*
%TO.P,U1,12*%
%TO.N,PAYLOAD_SDA*%
X268552395Y-90244395D03*
%TO.P,U1,11*%
%TO.N,PAYLOAD_SCL*%
X268552395Y-92784395D03*
%TO.P,U1,10*%
%TO.N,MCU_M2_IN2*%
X268552395Y-95324395D03*
%TO.P,U1,9*%
%TO.N,MCU_M2_IN1*%
X268552395Y-97864395D03*
%TO.P,U1,8*%
%TO.N,MCU_M1_IN2*%
X268552395Y-100404395D03*
%TO.P,U1,7*%
%TO.N,MCU_M1_IN1*%
X268552395Y-102944395D03*
%TO.P,U1,6*%
%TO.N,N/C*%
X268552395Y-105484395D03*
%TO.P,U1,5*%
X268552395Y-108024395D03*
%TO.P,U1,4*%
%TO.N,MPU_INT*%
X268552395Y-110564395D03*
%TO.P,U1,3*%
%TO.N,PAYLOAD_SHUTDOWN*%
X268552395Y-113104395D03*
%TO.P,U1,2*%
%TO.N,N/C*%
X268552395Y-115644395D03*
D13*
%TO.P,U1,1*%
%TO.N,GND*%
X268552395Y-118184395D03*
%TD*%
D14*
%TO.P,J6,2*%
%TO.N,GND*%
X245745000Y-69162395D03*
%TO.P,J6,1*%
%TO.N,+12V*%
%TA.AperFunction,SMDPad,CuDef*%
G36*
G01*
X236545000Y-70914395D02*
X236545000Y-67410395D01*
G75*
G02*
X236793000Y-67162395I248000J0D01*
G01*
X240297000Y-67162395D01*
G75*
G02*
X240545000Y-67410395I0J-248000D01*
G01*
X240545000Y-70914395D01*
G75*
G02*
X240297000Y-71162395I-248000J0D01*
G01*
X236793000Y-71162395D01*
G75*
G02*
X236545000Y-70914395I0J248000D01*
G01*
G37*
%TD.AperFunction*%
%TD*%
D15*
%TO.P,J5,4*%
%TO.N,GND*%
X240612395Y-85164395D03*
%TO.P,J5,3*%
%TO.N,PAYLOAD_SDA*%
X243152395Y-85164395D03*
%TO.P,J5,2*%
%TO.N,PAYLOAD_SCL*%
X245692395Y-85164395D03*
D16*
%TO.P,J5,1*%
%TO.N,PAYLOAD_SHUTDOWN*%
X248232395Y-85164395D03*
%TD*%
D14*
%TO.P,J4,2*%
%TO.N,GND*%
X230593000Y-69088000D03*
%TO.P,J4,1*%
%TO.N,+5V*%
%TA.AperFunction,SMDPad,CuDef*%
G36*
G01*
X221393000Y-70840000D02*
X221393000Y-67336000D01*
G75*
G02*
X221641000Y-67088000I248000J0D01*
G01*
X225145000Y-67088000D01*
G75*
G02*
X225393000Y-67336000I0J-248000D01*
G01*
X225393000Y-70840000D01*
G75*
G02*
X225145000Y-71088000I-248000J0D01*
G01*
X221641000Y-71088000D01*
G75*
G02*
X221393000Y-70840000I0J248000D01*
G01*
G37*
%TD.AperFunction*%
%TD*%
D15*
%TO.P,J3,6*%
%TO.N,M2_ENCB*%
X189732395Y-64804395D03*
%TO.P,J3,5*%
%TO.N,M2_ENCA*%
X187192395Y-64804395D03*
%TO.P,J3,4*%
%TO.N,+5V*%
X184652395Y-64804395D03*
%TO.P,J3,3*%
%TO.N,GND*%
X182112395Y-64804395D03*
%TO.P,J3,2*%
%TO.N,M2-*%
X179572395Y-64804395D03*
D16*
%TO.P,J3,1*%
%TO.N,M2+*%
X177032395Y-64804395D03*
%TD*%
D15*
%TO.P,J2,8*%
%TO.N,MPU_INT*%
X212672395Y-113104395D03*
%TO.P,J2,7*%
%TO.N,N/C*%
X215212395Y-113104395D03*
%TO.P,J2,6*%
X217752395Y-113104395D03*
%TO.P,J2,5*%
X220292395Y-113104395D03*
%TO.P,J2,4*%
%TO.N,MPU_SDA*%
X222832395Y-113104395D03*
%TO.P,J2,3*%
%TO.N,MPU_SCL*%
X225372395Y-113104395D03*
%TO.P,J2,2*%
%TO.N,GND*%
X227912395Y-113104395D03*
D16*
%TO.P,J2,1*%
%TO.N,+5V*%
X230452395Y-113104395D03*
%TD*%
D15*
%TO.P,J1,6*%
%TO.N,M1_ENCB*%
X256872395Y-64804395D03*
%TO.P,J1,5*%
%TO.N,M1_ENCA*%
X259412395Y-64804395D03*
%TO.P,J1,4*%
%TO.N,+5V*%
X261952395Y-64804395D03*
%TO.P,J1,3*%
%TO.N,GND*%
X264492395Y-64804395D03*
%TO.P,J1,2*%
%TO.N,M1-*%
X267032395Y-64804395D03*
D16*
%TO.P,J1,1*%
%TO.N,M1+*%
X269572395Y-64804395D03*
%TD*%
D17*
%TO.N,GND*%
X257884395Y-94308395D03*
X179652395Y-92276395D03*
X231722395Y-71702395D03*
X260362395Y-75955395D03*
X255663395Y-75955395D03*
X184673395Y-72904395D03*
X179901895Y-72904395D03*
%TO.N,+12V*%
X188605895Y-68908395D03*
X189812395Y-68908395D03*
X262646895Y-71765895D03*
X261694395Y-70813395D03*
%TO.N,+3V3*%
X189304395Y-90498395D03*
X207846395Y-88656895D03*
X214513895Y-84719895D03*
X251851895Y-80084395D03*
X258455895Y-92593895D03*
%TO.N,+5V*%
X221562395Y-72210395D03*
X189494895Y-75956895D03*
X262838895Y-81352895D03*
X256989885Y-102886405D03*
%TO.N,M2_ENCB*%
X236040395Y-91006395D03*
%TO.N,M2_ENCA*%
X237564395Y-89990395D03*
%TO.N,M2+*%
X182835010Y-68364428D03*
%TO.N,PAYLOAD_SHUTDOWN*%
X269823373Y-82528398D03*
X263942996Y-84248885D03*
%TO.N,M1_IN1*%
X260170395Y-101928395D03*
X259554781Y-80484781D03*
%TO.N,M1_IN2*%
X259916395Y-100404395D03*
X257444521Y-80819885D03*
%TO.N,M2_IN1*%
X213180395Y-89736395D03*
X214958395Y-99134395D03*
%TO.N,M2_IN2*%
X211148395Y-89990395D03*
X212672395Y-97864395D03*
%TD*%
D18*
%TO.N,GND*%
X266012395Y-115644395D02*
X268552395Y-118184395D01*
X253312395Y-115644395D02*
X266012395Y-115644395D01*
X230452395Y-115644395D02*
X253312395Y-115644395D01*
X227912395Y-113104395D02*
X230452395Y-115644395D01*
X183716395Y-92276395D02*
X187780395Y-96340395D01*
X179652395Y-92276395D02*
X183716395Y-92276395D01*
X231722395Y-70217395D02*
X230593000Y-69088000D01*
X231722395Y-71702395D02*
X231722395Y-70217395D01*
X240612395Y-79107395D02*
X230593000Y-69088000D01*
X240612395Y-85164395D02*
X240612395Y-79107395D01*
X245745000Y-73974790D02*
X240612395Y-79107395D01*
X245745000Y-69162395D02*
X245745000Y-73974790D01*
D19*
X245745000Y-69162395D02*
X252857000Y-76274395D01*
X260043395Y-76274395D02*
X260362395Y-75955395D01*
X252857000Y-76274395D02*
X260043395Y-76274395D01*
X179901895Y-72904395D02*
X184673395Y-72904395D01*
X184673395Y-72904395D02*
X184673395Y-74373895D01*
X184673395Y-74373895D02*
X188859895Y-78560395D01*
X221120605Y-78560395D02*
X230593000Y-69088000D01*
X188859895Y-78560395D02*
X221120605Y-78560395D01*
X179652395Y-87767895D02*
X188859895Y-78560395D01*
X179652395Y-92276395D02*
X179652395Y-87767895D01*
D20*
X244402396Y-88954396D02*
X247236394Y-88954396D01*
X240612395Y-85164395D02*
X244402396Y-88954396D01*
X247236394Y-88954396D02*
X251343895Y-84846895D01*
X251343895Y-84846895D02*
X251343895Y-83386395D01*
X251343895Y-83386395D02*
X251788395Y-82941895D01*
X251788395Y-82941895D02*
X254264895Y-82941895D01*
X254264895Y-82941895D02*
X256614395Y-85291395D01*
X256614395Y-93038395D02*
X257884395Y-94308395D01*
X256614395Y-85291395D02*
X256614395Y-93038395D01*
X240612395Y-85164395D02*
X234897395Y-85164395D01*
X227912395Y-92149395D02*
X227912395Y-113104395D01*
X234897395Y-85164395D02*
X227912395Y-92149395D01*
D19*
X230593000Y-72243790D02*
X230593000Y-69088000D01*
X230593000Y-69088000D02*
X230593000Y-70865000D01*
X230593000Y-70865000D02*
X234032395Y-74304395D01*
X245745000Y-69162395D02*
X245745000Y-73517000D01*
%TO.N,+12V*%
X238545000Y-69162395D02*
X238545000Y-66460000D01*
X237310395Y-64653895D02*
X198694705Y-64653895D01*
X238545000Y-66460000D02*
X237472990Y-65387990D01*
X198857300Y-65387990D02*
X195336895Y-68908395D01*
X195336895Y-68908395D02*
X189812395Y-68908395D01*
X188605895Y-68908395D02*
X188605895Y-68908395D01*
X189812395Y-68908395D02*
X188605895Y-68908395D01*
X238545000Y-69162395D02*
X238545000Y-68562790D01*
X241691895Y-64971395D02*
X250611393Y-64971395D01*
X238545000Y-68562790D02*
X241645396Y-65462394D01*
X250564894Y-65462394D02*
X255344395Y-70241895D01*
X255344395Y-70241895D02*
X261122895Y-70241895D01*
X261122895Y-70241895D02*
X261694395Y-70813395D01*
X262646895Y-71765895D02*
X262710395Y-71829395D01*
D18*
%TO.N,+3V3*%
X189304395Y-97356395D02*
X187780395Y-98880395D01*
X189304395Y-90498395D02*
X189304395Y-97356395D01*
D20*
X207846395Y-88656895D02*
X211783395Y-84719895D01*
X211783395Y-84719895D02*
X214513895Y-84719895D01*
X251851895Y-80084395D02*
X253248895Y-80084395D01*
X253248895Y-80084395D02*
X258455895Y-85291395D01*
X258455895Y-85291395D02*
X258455895Y-92593895D01*
D18*
%TO.N,+5V*%
X223393000Y-69088000D02*
X223393000Y-70379790D01*
X223393000Y-70379790D02*
X221562395Y-72210395D01*
X189494895Y-75956895D02*
X189494895Y-73289895D01*
X184652395Y-68447395D02*
X184652395Y-64804395D01*
X189494895Y-73289895D02*
X184652395Y-68447395D01*
X262838895Y-81352895D02*
X262838895Y-94814895D01*
X262838895Y-94814895D02*
X262075395Y-95578395D01*
X262075395Y-95578395D02*
X262075395Y-102563395D01*
X262075395Y-102563395D02*
X261752385Y-102886405D01*
X261752385Y-102886405D02*
X256989885Y-102886405D01*
X196032395Y-71804395D02*
X190980395Y-71804395D01*
X221562395Y-72210395D02*
X216656395Y-67304395D01*
X190980395Y-71804395D02*
X189494895Y-73289895D01*
X200532395Y-67304395D02*
X196032395Y-71804395D01*
X216656395Y-67304395D02*
X200532395Y-67304395D01*
%TO.N,M1_ENCB*%
X269123836Y-106674896D02*
X272870395Y-102928337D01*
X253312395Y-105484395D02*
X254502896Y-106674896D01*
X254502896Y-106674896D02*
X269123836Y-106674896D01*
X272870395Y-102928337D02*
X272870395Y-64082395D01*
X272870395Y-64082395D02*
X271854395Y-63066395D01*
X258610395Y-63066395D02*
X256872395Y-64804395D01*
X271854395Y-63066395D02*
X258610395Y-63066395D01*
%TO.N,M1_ENCA*%
X271273384Y-101985348D02*
X269123836Y-104134896D01*
X259412395Y-64804395D02*
X262500395Y-67892395D01*
X269123836Y-104134896D02*
X254502896Y-104134896D01*
X254502896Y-104134896D02*
X253312395Y-102944395D01*
X270330395Y-67892395D02*
X271273384Y-68835384D01*
X271273384Y-68835384D02*
X271273384Y-101985348D01*
X262500395Y-67892395D02*
X270330395Y-67892395D01*
%TO.N,M2_ENCB*%
X236040395Y-91006395D02*
X248994395Y-91006395D01*
X248994395Y-91006395D02*
X253312395Y-95324395D01*
%TO.N,M2_ENCA*%
X250518395Y-89990395D02*
X237564395Y-89990395D01*
X253312395Y-92784395D02*
X250518395Y-89990395D01*
D21*
%TO.N,M2+*%
X180592428Y-68364428D02*
X182835010Y-68364428D01*
X177032395Y-64804395D02*
X180592428Y-68364428D01*
D18*
%TO.N,PAYLOAD_SHUTDOWN*%
X265663483Y-82528398D02*
X263942996Y-84248885D01*
X269823373Y-82528398D02*
X265663483Y-82528398D01*
%TO.N,M1_IN1*%
X260932395Y-101166395D02*
X260932395Y-81862395D01*
X260170395Y-101928395D02*
X260932395Y-101166395D01*
X260932395Y-81862395D02*
X259554781Y-80484781D01*
%TO.N,M1_IN2*%
X259916395Y-83291759D02*
X257444521Y-80819885D01*
X259916395Y-100404395D02*
X259916395Y-83291759D01*
%TO.N,M2_IN1*%
X214958395Y-99134395D02*
X214196395Y-98372395D01*
X214196395Y-90752395D02*
X213180395Y-89736395D01*
X214196395Y-98372395D02*
X214196395Y-90752395D01*
%TO.N,M2_IN2*%
X212672395Y-97864395D02*
X211656395Y-96848395D01*
X211656395Y-90498395D02*
X211148395Y-89990395D01*
X211656395Y-96848395D02*
X211656395Y-90498395D01*
%TD*%
D22*
%TO.N,GND*%
G36*
X197177728Y-63136918D02*
G01*
X196910928Y-63462014D01*
X196712679Y-63832913D01*
X196590597Y-64235362D01*
X196549375Y-64653895D01*
X196551408Y-64674536D01*
X194452550Y-66773395D01*
X188501013Y-66773395D01*
X188187362Y-66804287D01*
X187784913Y-66926369D01*
X187414014Y-67124618D01*
X187088918Y-67391418D01*
X186822118Y-67716514D01*
X186623869Y-68087413D01*
X186501787Y-68489862D01*
X186460565Y-68908395D01*
X186480202Y-69107769D01*
X185477895Y-68105463D01*
X185477895Y-66038808D01*
X185599027Y-65957870D01*
X185805870Y-65751027D01*
X185922395Y-65576635D01*
X186038920Y-65751027D01*
X186245763Y-65957870D01*
X186488984Y-66120385D01*
X186759237Y-66232327D01*
X187046135Y-66289395D01*
X187338655Y-66289395D01*
X187625553Y-66232327D01*
X187895806Y-66120385D01*
X188139027Y-65957870D01*
X188345870Y-65751027D01*
X188462395Y-65576635D01*
X188578920Y-65751027D01*
X188785763Y-65957870D01*
X189028984Y-66120385D01*
X189299237Y-66232327D01*
X189586135Y-66289395D01*
X189878655Y-66289395D01*
X190165553Y-66232327D01*
X190435806Y-66120385D01*
X190679027Y-65957870D01*
X190885870Y-65751027D01*
X191048385Y-65507806D01*
X191160327Y-65237553D01*
X191217395Y-64950655D01*
X191217395Y-64658135D01*
X191160327Y-64371237D01*
X191048385Y-64100984D01*
X190885870Y-63857763D01*
X190679027Y-63650920D01*
X190435806Y-63488405D01*
X190165553Y-63376463D01*
X189878655Y-63319395D01*
X189586135Y-63319395D01*
X189299237Y-63376463D01*
X189028984Y-63488405D01*
X188785763Y-63650920D01*
X188578920Y-63857763D01*
X188462395Y-64032155D01*
X188345870Y-63857763D01*
X188139027Y-63650920D01*
X187895806Y-63488405D01*
X187625553Y-63376463D01*
X187338655Y-63319395D01*
X187046135Y-63319395D01*
X186759237Y-63376463D01*
X186488984Y-63488405D01*
X186245763Y-63650920D01*
X186038920Y-63857763D01*
X185922395Y-64032155D01*
X185805870Y-63857763D01*
X185599027Y-63650920D01*
X185355806Y-63488405D01*
X185085553Y-63376463D01*
X184798655Y-63319395D01*
X184506135Y-63319395D01*
X184219237Y-63376463D01*
X183948984Y-63488405D01*
X183705763Y-63650920D01*
X183498920Y-63857763D01*
X183377200Y-64039929D01*
X183307573Y-63923040D01*
X183112664Y-63706807D01*
X182879315Y-63532754D01*
X182616494Y-63407570D01*
X182469285Y-63362919D01*
X182239395Y-63484240D01*
X182239395Y-64677395D01*
X182259395Y-64677395D01*
X182259395Y-64931395D01*
X182239395Y-64931395D01*
X182239395Y-66124550D01*
X182469285Y-66245871D01*
X182616494Y-66201220D01*
X182879315Y-66076036D01*
X183112664Y-65901983D01*
X183307573Y-65685750D01*
X183377200Y-65568861D01*
X183498920Y-65751027D01*
X183705763Y-65957870D01*
X183826896Y-66038808D01*
X183826895Y-67760944D01*
X183736041Y-67624971D01*
X183574467Y-67463397D01*
X183384476Y-67336449D01*
X183173370Y-67249006D01*
X182949260Y-67204428D01*
X182720760Y-67204428D01*
X182595076Y-67229428D01*
X181062560Y-67229428D01*
X180047913Y-66214781D01*
X180275806Y-66120385D01*
X180519027Y-65957870D01*
X180725870Y-65751027D01*
X180847590Y-65568861D01*
X180917217Y-65685750D01*
X181112126Y-65901983D01*
X181345475Y-66076036D01*
X181608296Y-66201220D01*
X181755505Y-66245871D01*
X181985395Y-66124550D01*
X181985395Y-64931395D01*
X181965395Y-64931395D01*
X181965395Y-64677395D01*
X181985395Y-64677395D01*
X181985395Y-63484240D01*
X181755505Y-63362919D01*
X181608296Y-63407570D01*
X181345475Y-63532754D01*
X181112126Y-63706807D01*
X180917217Y-63923040D01*
X180847590Y-64039929D01*
X180725870Y-63857763D01*
X180519027Y-63650920D01*
X180275806Y-63488405D01*
X180005553Y-63376463D01*
X179718655Y-63319395D01*
X179426135Y-63319395D01*
X179139237Y-63376463D01*
X178868984Y-63488405D01*
X178625763Y-63650920D01*
X178493908Y-63782775D01*
X178471897Y-63710215D01*
X178412932Y-63599901D01*
X178333580Y-63503210D01*
X178236889Y-63423858D01*
X178126575Y-63364893D01*
X178006877Y-63328583D01*
X177882395Y-63316323D01*
X176182395Y-63316323D01*
X176057913Y-63328583D01*
X175938215Y-63364893D01*
X175827901Y-63423858D01*
X175731210Y-63503210D01*
X175651858Y-63599901D01*
X175592893Y-63710215D01*
X175556583Y-63829913D01*
X175544323Y-63954395D01*
X175544323Y-65654395D01*
X175556583Y-65778877D01*
X175592893Y-65898575D01*
X175651858Y-66008889D01*
X175731210Y-66105580D01*
X175827901Y-66184932D01*
X175938215Y-66243897D01*
X176057913Y-66280207D01*
X176182395Y-66292467D01*
X176915336Y-66292467D01*
X179750437Y-69127569D01*
X179785979Y-69170877D01*
X179958805Y-69312712D01*
X180091750Y-69383772D01*
X180155981Y-69418104D01*
X180369929Y-69483005D01*
X180592428Y-69504919D01*
X180648179Y-69499428D01*
X182595076Y-69499428D01*
X182720760Y-69524428D01*
X182949260Y-69524428D01*
X183173370Y-69479850D01*
X183384476Y-69392407D01*
X183574467Y-69265459D01*
X183736041Y-69103885D01*
X183862989Y-68913894D01*
X183907841Y-68805611D01*
X183962696Y-68908237D01*
X183962826Y-68908395D01*
X184065854Y-69033936D01*
X184097361Y-69059793D01*
X188669396Y-73631829D01*
X188669395Y-75141907D01*
X188593864Y-75217438D01*
X188466916Y-75407429D01*
X188379473Y-75618535D01*
X188334895Y-75842645D01*
X188334895Y-76071145D01*
X188379473Y-76295255D01*
X188466916Y-76506361D01*
X188593864Y-76696352D01*
X188755438Y-76857926D01*
X188945429Y-76984874D01*
X189156535Y-77072317D01*
X189380645Y-77116895D01*
X189609145Y-77116895D01*
X189833255Y-77072317D01*
X190044361Y-76984874D01*
X190234352Y-76857926D01*
X190395926Y-76696352D01*
X190522874Y-76506361D01*
X190610317Y-76295255D01*
X190654895Y-76071145D01*
X190654895Y-75842645D01*
X190610317Y-75618535D01*
X190522874Y-75407429D01*
X190395926Y-75217438D01*
X190320395Y-75141907D01*
X190320395Y-73631827D01*
X191322328Y-72629895D01*
X195991845Y-72629895D01*
X196032395Y-72633889D01*
X196072945Y-72629895D01*
X196072948Y-72629895D01*
X196194221Y-72617951D01*
X196349829Y-72570748D01*
X196493237Y-72494094D01*
X196618936Y-72390936D01*
X196644793Y-72359429D01*
X197434729Y-71569493D01*
X207647395Y-71569493D01*
X207647395Y-72039297D01*
X207739049Y-72500074D01*
X207918835Y-72934116D01*
X208179845Y-73324744D01*
X208512046Y-73656945D01*
X208902674Y-73917955D01*
X209336716Y-74097741D01*
X209797493Y-74189395D01*
X210267297Y-74189395D01*
X210728074Y-74097741D01*
X211162116Y-73917955D01*
X211552744Y-73656945D01*
X211884945Y-73324744D01*
X212145955Y-72934116D01*
X212325741Y-72500074D01*
X212417395Y-72039297D01*
X212417395Y-71569493D01*
X212325741Y-71108716D01*
X212145955Y-70674674D01*
X211884945Y-70284046D01*
X211552744Y-69951845D01*
X211162116Y-69690835D01*
X210728074Y-69511049D01*
X210267297Y-69419395D01*
X209797493Y-69419395D01*
X209336716Y-69511049D01*
X208902674Y-69690835D01*
X208512046Y-69951845D01*
X208179845Y-70284046D01*
X207918835Y-70674674D01*
X207739049Y-71108716D01*
X207647395Y-71569493D01*
X197434729Y-71569493D01*
X200874328Y-68129895D01*
X216314463Y-68129895D01*
X219405395Y-71220828D01*
X219405395Y-72304395D01*
X219407835Y-72329171D01*
X219415062Y-72352996D01*
X219426798Y-72374952D01*
X219442592Y-72394198D01*
X219461838Y-72409992D01*
X219483794Y-72421728D01*
X219507619Y-72428955D01*
X219532395Y-72431395D01*
X220423629Y-72431395D01*
X220446973Y-72548755D01*
X220534416Y-72759861D01*
X220661364Y-72949852D01*
X220822938Y-73111426D01*
X221012929Y-73238374D01*
X221224035Y-73325817D01*
X221448145Y-73370395D01*
X221676645Y-73370395D01*
X221900755Y-73325817D01*
X222111861Y-73238374D01*
X222301852Y-73111426D01*
X222463426Y-72949852D01*
X222590374Y-72759861D01*
X222677817Y-72548755D01*
X222701161Y-72431395D01*
X249532395Y-72431395D01*
X249557171Y-72428955D01*
X249580996Y-72421728D01*
X249602952Y-72409992D01*
X249622198Y-72394198D01*
X249637992Y-72374952D01*
X249649728Y-72352996D01*
X249656955Y-72329171D01*
X249659395Y-72304395D01*
X249659395Y-67576240D01*
X253760562Y-71677408D01*
X253827418Y-71758872D01*
X253908882Y-71825728D01*
X253908884Y-71825730D01*
X254034496Y-71928817D01*
X254152514Y-72025672D01*
X254523413Y-72223921D01*
X254925862Y-72346003D01*
X255239513Y-72376895D01*
X255239522Y-72376895D01*
X255344394Y-72387224D01*
X255449266Y-72376895D01*
X260238550Y-72376895D01*
X260258885Y-72397230D01*
X260502514Y-72597171D01*
X260737511Y-72722779D01*
X260863119Y-72957776D01*
X261063060Y-73201405D01*
X261274886Y-73413231D01*
X261518514Y-73613171D01*
X261889414Y-73811421D01*
X262291862Y-73933503D01*
X262710395Y-73974724D01*
X263128928Y-73933503D01*
X263531377Y-73811421D01*
X263902276Y-73613171D01*
X264227372Y-73346372D01*
X264494171Y-73021276D01*
X264692421Y-72650377D01*
X264814503Y-72247928D01*
X264855724Y-71829395D01*
X264814503Y-71410862D01*
X264692421Y-71008414D01*
X264494171Y-70637514D01*
X264294231Y-70393886D01*
X264082405Y-70182060D01*
X263838776Y-69982119D01*
X263603779Y-69856511D01*
X263478171Y-69621514D01*
X263278230Y-69377885D01*
X262706732Y-68806387D01*
X262639872Y-68724918D01*
X262631314Y-68717895D01*
X269988462Y-68717895D01*
X270447884Y-69177317D01*
X270447884Y-81550563D01*
X270372839Y-81500419D01*
X270161733Y-81412976D01*
X269937623Y-81368398D01*
X269709123Y-81368398D01*
X269485013Y-81412976D01*
X269273907Y-81500419D01*
X269083916Y-81627367D01*
X269008385Y-81702898D01*
X265704033Y-81702898D01*
X265663482Y-81698904D01*
X265622932Y-81702898D01*
X265622930Y-81702898D01*
X265501657Y-81714842D01*
X265346049Y-81762045D01*
X265202640Y-81838699D01*
X265191473Y-81847864D01*
X265076942Y-81941857D01*
X265051089Y-81973359D01*
X263935564Y-83088885D01*
X263828746Y-83088885D01*
X263664395Y-83121576D01*
X263664395Y-82167883D01*
X263739926Y-82092352D01*
X263866874Y-81902361D01*
X263954317Y-81691255D01*
X263998895Y-81467145D01*
X263998895Y-81238645D01*
X263954317Y-81014535D01*
X263866874Y-80803429D01*
X263739926Y-80613438D01*
X263578352Y-80451864D01*
X263388361Y-80324916D01*
X263177255Y-80237473D01*
X262953145Y-80192895D01*
X262724645Y-80192895D01*
X262500535Y-80237473D01*
X262289429Y-80324916D01*
X262099438Y-80451864D01*
X261937864Y-80613438D01*
X261810916Y-80803429D01*
X261723473Y-81014535D01*
X261678895Y-81238645D01*
X261678895Y-81467145D01*
X261691781Y-81531926D01*
X261622094Y-81401553D01*
X261518936Y-81275854D01*
X261487434Y-81250001D01*
X260714781Y-80477349D01*
X260714781Y-80370531D01*
X260670203Y-80146421D01*
X260582760Y-79935315D01*
X260455812Y-79745324D01*
X260294238Y-79583750D01*
X260104247Y-79456802D01*
X259893141Y-79369359D01*
X259669031Y-79324781D01*
X259440531Y-79324781D01*
X259216421Y-79369359D01*
X259005315Y-79456802D01*
X258815324Y-79583750D01*
X258653750Y-79745324D01*
X258526802Y-79935315D01*
X258439359Y-80146421D01*
X258427955Y-80203753D01*
X258345552Y-80080428D01*
X258183978Y-79918854D01*
X257993987Y-79791906D01*
X257782881Y-79704463D01*
X257558771Y-79659885D01*
X257330271Y-79659885D01*
X257106161Y-79704463D01*
X256895055Y-79791906D01*
X256705064Y-79918854D01*
X256543490Y-80080428D01*
X256416542Y-80270419D01*
X256329099Y-80481525D01*
X256284521Y-80705635D01*
X256284521Y-80934135D01*
X256329099Y-81158245D01*
X256416542Y-81369351D01*
X256543490Y-81559342D01*
X256705064Y-81720916D01*
X256895055Y-81847864D01*
X257106161Y-81935307D01*
X257330271Y-81979885D01*
X257437089Y-81979885D01*
X259090896Y-83633694D01*
X259090896Y-84670113D01*
X259084712Y-84662578D01*
X259050946Y-84634867D01*
X253905429Y-79489351D01*
X253877712Y-79455578D01*
X253742954Y-79344984D01*
X253589208Y-79262806D01*
X253422385Y-79212200D01*
X253292372Y-79199395D01*
X253292364Y-79199395D01*
X253248895Y-79195114D01*
X253205426Y-79199395D01*
X252607383Y-79199395D01*
X252591352Y-79183364D01*
X252401361Y-79056416D01*
X252190255Y-78968973D01*
X251966145Y-78924395D01*
X251737645Y-78924395D01*
X251513535Y-78968973D01*
X251302429Y-79056416D01*
X251112438Y-79183364D01*
X250950864Y-79344938D01*
X250823916Y-79534929D01*
X250736473Y-79746035D01*
X250691895Y-79970145D01*
X250691895Y-80198645D01*
X250736473Y-80422755D01*
X250823916Y-80633861D01*
X250950864Y-80823852D01*
X251112438Y-80985426D01*
X251302429Y-81112374D01*
X251513535Y-81199817D01*
X251737645Y-81244395D01*
X251966145Y-81244395D01*
X252190255Y-81199817D01*
X252401361Y-81112374D01*
X252591352Y-80985426D01*
X252607383Y-80969395D01*
X252882317Y-80969395D01*
X257570895Y-85657974D01*
X257570896Y-91838406D01*
X257554864Y-91854438D01*
X257427916Y-92044429D01*
X257340473Y-92255535D01*
X257295895Y-92479645D01*
X257295895Y-92708145D01*
X257340473Y-92932255D01*
X257427916Y-93143361D01*
X257554864Y-93333352D01*
X257716438Y-93494926D01*
X257906429Y-93621874D01*
X258117535Y-93709317D01*
X258341645Y-93753895D01*
X258570145Y-93753895D01*
X258794255Y-93709317D01*
X259005361Y-93621874D01*
X259090895Y-93564722D01*
X259090895Y-99589407D01*
X259015364Y-99664938D01*
X258888416Y-99854929D01*
X258800973Y-100066035D01*
X258756395Y-100290145D01*
X258756395Y-100518645D01*
X258800973Y-100742755D01*
X258888416Y-100953861D01*
X259015364Y-101143852D01*
X259176938Y-101305426D01*
X259187025Y-101312166D01*
X259142416Y-101378929D01*
X259054973Y-101590035D01*
X259010395Y-101814145D01*
X259010395Y-102042645D01*
X259014027Y-102060905D01*
X257804873Y-102060905D01*
X257729342Y-101985374D01*
X257539351Y-101858426D01*
X257328245Y-101770983D01*
X257104135Y-101726405D01*
X256875635Y-101726405D01*
X256651525Y-101770983D01*
X256440419Y-101858426D01*
X256250428Y-101985374D01*
X256088854Y-102146948D01*
X255961906Y-102336939D01*
X255874463Y-102548045D01*
X255829885Y-102772155D01*
X255829885Y-103000655D01*
X255874463Y-103224765D01*
X255909518Y-103309396D01*
X254844830Y-103309396D01*
X254726452Y-103191018D01*
X254747395Y-103085730D01*
X254747395Y-102803060D01*
X254692248Y-102525821D01*
X254584075Y-102264668D01*
X254427032Y-102029636D01*
X254227154Y-101829758D01*
X253994636Y-101674395D01*
X254227154Y-101519032D01*
X254427032Y-101319154D01*
X254584075Y-101084122D01*
X254692248Y-100822969D01*
X254747395Y-100545730D01*
X254747395Y-100263060D01*
X254692248Y-99985821D01*
X254584075Y-99724668D01*
X254427032Y-99489636D01*
X254227154Y-99289758D01*
X253994636Y-99134395D01*
X254227154Y-98979032D01*
X254427032Y-98779154D01*
X254584075Y-98544122D01*
X254692248Y-98282969D01*
X254747395Y-98005730D01*
X254747395Y-97723060D01*
X254692248Y-97445821D01*
X254584075Y-97184668D01*
X254427032Y-96949636D01*
X254227154Y-96749758D01*
X253994636Y-96594395D01*
X254227154Y-96439032D01*
X254427032Y-96239154D01*
X254584075Y-96004122D01*
X254692248Y-95742969D01*
X254747395Y-95465730D01*
X254747395Y-95183060D01*
X254692248Y-94905821D01*
X254584075Y-94644668D01*
X254427032Y-94409636D01*
X254227154Y-94209758D01*
X253994636Y-94054395D01*
X254227154Y-93899032D01*
X254427032Y-93699154D01*
X254584075Y-93464122D01*
X254692248Y-93202969D01*
X254747395Y-92925730D01*
X254747395Y-92643060D01*
X254692248Y-92365821D01*
X254584075Y-92104668D01*
X254427032Y-91869636D01*
X254227154Y-91669758D01*
X253994636Y-91514395D01*
X254227154Y-91359032D01*
X254427032Y-91159154D01*
X254584075Y-90924122D01*
X254692248Y-90662969D01*
X254747395Y-90385730D01*
X254747395Y-90103060D01*
X254692248Y-89825821D01*
X254584075Y-89564668D01*
X254427032Y-89329636D01*
X254227154Y-89129758D01*
X253994636Y-88974395D01*
X254227154Y-88819032D01*
X254427032Y-88619154D01*
X254584075Y-88384122D01*
X254692248Y-88122969D01*
X254747395Y-87845730D01*
X254747395Y-87563060D01*
X254692248Y-87285821D01*
X254584075Y-87024668D01*
X254427032Y-86789636D01*
X254227154Y-86589758D01*
X253994636Y-86434395D01*
X254227154Y-86279032D01*
X254427032Y-86079154D01*
X254584075Y-85844122D01*
X254692248Y-85582969D01*
X254747395Y-85305730D01*
X254747395Y-85023060D01*
X254692248Y-84745821D01*
X254584075Y-84484668D01*
X254427032Y-84249636D01*
X254227154Y-84049758D01*
X253992122Y-83892715D01*
X253730969Y-83784542D01*
X253453730Y-83729395D01*
X253171060Y-83729395D01*
X252893821Y-83784542D01*
X252632668Y-83892715D01*
X252397636Y-84049758D01*
X252197758Y-84249636D01*
X252040715Y-84484668D01*
X251932542Y-84745821D01*
X251877395Y-85023060D01*
X251877395Y-85305730D01*
X251932542Y-85582969D01*
X252040715Y-85844122D01*
X252197758Y-86079154D01*
X252397636Y-86279032D01*
X252630154Y-86434395D01*
X252397636Y-86589758D01*
X252197758Y-86789636D01*
X252040715Y-87024668D01*
X251932542Y-87285821D01*
X251877395Y-87563060D01*
X251877395Y-87845730D01*
X251932542Y-88122969D01*
X252040715Y-88384122D01*
X252197758Y-88619154D01*
X252397636Y-88819032D01*
X252630154Y-88974395D01*
X252397636Y-89129758D01*
X252197758Y-89329636D01*
X252040715Y-89564668D01*
X251932542Y-89825821D01*
X251877395Y-90103060D01*
X251877395Y-90181962D01*
X251130793Y-89435361D01*
X251104936Y-89403854D01*
X250979237Y-89300696D01*
X250835829Y-89224042D01*
X250680221Y-89176839D01*
X250558948Y-89164895D01*
X250558945Y-89164895D01*
X250518395Y-89160901D01*
X250477845Y-89164895D01*
X238379383Y-89164895D01*
X238303852Y-89089364D01*
X238113861Y-88962416D01*
X237902755Y-88874973D01*
X237678645Y-88830395D01*
X237450145Y-88830395D01*
X237226035Y-88874973D01*
X237014929Y-88962416D01*
X236824938Y-89089364D01*
X236663364Y-89250938D01*
X236536416Y-89440929D01*
X236448973Y-89652035D01*
X236404395Y-89876145D01*
X236404395Y-89901593D01*
X236378755Y-89890973D01*
X236154645Y-89846395D01*
X235926145Y-89846395D01*
X235702035Y-89890973D01*
X235490929Y-89978416D01*
X235300938Y-90105364D01*
X235139364Y-90266938D01*
X235012416Y-90456929D01*
X234924973Y-90668035D01*
X234880395Y-90892145D01*
X234880395Y-91120645D01*
X234924973Y-91344755D01*
X235012416Y-91555861D01*
X235139364Y-91745852D01*
X235300938Y-91907426D01*
X235490929Y-92034374D01*
X235702035Y-92121817D01*
X235926145Y-92166395D01*
X236154645Y-92166395D01*
X236378755Y-92121817D01*
X236589861Y-92034374D01*
X236779852Y-91907426D01*
X236855383Y-91831895D01*
X248652463Y-91831895D01*
X251898339Y-95077771D01*
X251877395Y-95183060D01*
X251877395Y-95465730D01*
X251932542Y-95742969D01*
X252040715Y-96004122D01*
X252197758Y-96239154D01*
X252397636Y-96439032D01*
X252630154Y-96594395D01*
X252397636Y-96749758D01*
X252197758Y-96949636D01*
X252040715Y-97184668D01*
X251932542Y-97445821D01*
X251877395Y-97723060D01*
X251877395Y-98005730D01*
X251932542Y-98282969D01*
X252040715Y-98544122D01*
X252197758Y-98779154D01*
X252397636Y-98979032D01*
X252630154Y-99134395D01*
X252397636Y-99289758D01*
X252197758Y-99489636D01*
X252040715Y-99724668D01*
X251932542Y-99985821D01*
X251877395Y-100263060D01*
X251877395Y-100545730D01*
X251932542Y-100822969D01*
X252040715Y-101084122D01*
X252197758Y-101319154D01*
X252397636Y-101519032D01*
X252630154Y-101674395D01*
X252397636Y-101829758D01*
X252197758Y-102029636D01*
X252040715Y-102264668D01*
X251932542Y-102525821D01*
X251877395Y-102803060D01*
X251877395Y-103085730D01*
X251932542Y-103362969D01*
X252040715Y-103624122D01*
X252197758Y-103859154D01*
X252397636Y-104059032D01*
X252630154Y-104214395D01*
X252397636Y-104369758D01*
X252197758Y-104569636D01*
X252040715Y-104804668D01*
X251932542Y-105065821D01*
X251877395Y-105343060D01*
X251877395Y-105625730D01*
X251932542Y-105902969D01*
X252040715Y-106164122D01*
X252197758Y-106399154D01*
X252397636Y-106599032D01*
X252630154Y-106754395D01*
X252397636Y-106909758D01*
X252197758Y-107109636D01*
X252040715Y-107344668D01*
X251932542Y-107605821D01*
X251877395Y-107883060D01*
X251877395Y-108165730D01*
X251932542Y-108442969D01*
X252040715Y-108704122D01*
X252197758Y-108939154D01*
X252397636Y-109139032D01*
X252630154Y-109294395D01*
X252397636Y-109449758D01*
X252197758Y-109649636D01*
X252040715Y-109884668D01*
X251932542Y-110145821D01*
X251877395Y-110423060D01*
X251877395Y-110705730D01*
X251932542Y-110982969D01*
X252040715Y-111244122D01*
X252197758Y-111479154D01*
X252397636Y-111679032D01*
X252630154Y-111834395D01*
X252397636Y-111989758D01*
X252197758Y-112189636D01*
X252040715Y-112424668D01*
X251932542Y-112685821D01*
X251877395Y-112963060D01*
X251877395Y-113245730D01*
X251932542Y-113522969D01*
X252040715Y-113784122D01*
X252197758Y-114019154D01*
X252397636Y-114219032D01*
X252631523Y-114375310D01*
X252570881Y-114407724D01*
X252499298Y-114651693D01*
X253312395Y-115464790D01*
X254125492Y-114651693D01*
X254053909Y-114407724D01*
X253989403Y-114377201D01*
X253992122Y-114376075D01*
X254227154Y-114219032D01*
X254427032Y-114019154D01*
X254584075Y-113784122D01*
X254692248Y-113522969D01*
X254747395Y-113245730D01*
X254747395Y-112963060D01*
X254692248Y-112685821D01*
X254584075Y-112424668D01*
X254427032Y-112189636D01*
X254227154Y-111989758D01*
X253994636Y-111834395D01*
X254227154Y-111679032D01*
X254427032Y-111479154D01*
X254584075Y-111244122D01*
X254692248Y-110982969D01*
X254747395Y-110705730D01*
X254747395Y-110423060D01*
X254692248Y-110145821D01*
X254584075Y-109884668D01*
X254427032Y-109649636D01*
X254227154Y-109449758D01*
X253994636Y-109294395D01*
X254227154Y-109139032D01*
X254427032Y-108939154D01*
X254584075Y-108704122D01*
X254692248Y-108442969D01*
X254747395Y-108165730D01*
X254747395Y-107883060D01*
X254692248Y-107605821D01*
X254648580Y-107500396D01*
X267216210Y-107500396D01*
X267172542Y-107605821D01*
X267117395Y-107883060D01*
X267117395Y-108165730D01*
X267172542Y-108442969D01*
X267280715Y-108704122D01*
X267437758Y-108939154D01*
X267637636Y-109139032D01*
X267870154Y-109294395D01*
X267637636Y-109449758D01*
X267437758Y-109649636D01*
X267280715Y-109884668D01*
X267172542Y-110145821D01*
X267117395Y-110423060D01*
X267117395Y-110705730D01*
X267172542Y-110982969D01*
X267280715Y-111244122D01*
X267437758Y-111479154D01*
X267637636Y-111679032D01*
X267870154Y-111834395D01*
X267637636Y-111989758D01*
X267437758Y-112189636D01*
X267280715Y-112424668D01*
X267172542Y-112685821D01*
X267117395Y-112963060D01*
X267117395Y-113245730D01*
X267172542Y-113522969D01*
X267280715Y-113784122D01*
X267437758Y-114019154D01*
X267637636Y-114219032D01*
X267870154Y-114374395D01*
X267637636Y-114529758D01*
X267437758Y-114729636D01*
X267280715Y-114964668D01*
X267172542Y-115225821D01*
X267117395Y-115503060D01*
X267117395Y-115785730D01*
X267172542Y-116062969D01*
X267280715Y-116324122D01*
X267437758Y-116559154D01*
X267636356Y-116757752D01*
X267627913Y-116758583D01*
X267508215Y-116794893D01*
X267397901Y-116853858D01*
X267301210Y-116933210D01*
X267221858Y-117029901D01*
X267162893Y-117140215D01*
X267126583Y-117259913D01*
X267114323Y-117384395D01*
X267117395Y-117898645D01*
X267276145Y-118057395D01*
X268425395Y-118057395D01*
X268425395Y-118037395D01*
X268679395Y-118037395D01*
X268679395Y-118057395D01*
X269828645Y-118057395D01*
X269987395Y-117898645D01*
X269990467Y-117384395D01*
X269978207Y-117259913D01*
X269941897Y-117140215D01*
X269882932Y-117029901D01*
X269803580Y-116933210D01*
X269706889Y-116853858D01*
X269596575Y-116794893D01*
X269476877Y-116758583D01*
X269468434Y-116757752D01*
X269667032Y-116559154D01*
X269824075Y-116324122D01*
X269932248Y-116062969D01*
X269987395Y-115785730D01*
X269987395Y-115503060D01*
X269932248Y-115225821D01*
X269824075Y-114964668D01*
X269667032Y-114729636D01*
X269467154Y-114529758D01*
X269234636Y-114374395D01*
X269467154Y-114219032D01*
X269667032Y-114019154D01*
X269824075Y-113784122D01*
X269932248Y-113522969D01*
X269987395Y-113245730D01*
X269987395Y-112963060D01*
X269932248Y-112685821D01*
X269824075Y-112424668D01*
X269667032Y-112189636D01*
X269467154Y-111989758D01*
X269234636Y-111834395D01*
X269467154Y-111679032D01*
X269667032Y-111479154D01*
X269824075Y-111244122D01*
X269932248Y-110982969D01*
X269987395Y-110705730D01*
X269987395Y-110423060D01*
X269932248Y-110145821D01*
X269824075Y-109884668D01*
X269667032Y-109649636D01*
X269467154Y-109449758D01*
X269234636Y-109294395D01*
X269467154Y-109139032D01*
X269667032Y-108939154D01*
X269824075Y-108704122D01*
X269932248Y-108442969D01*
X269987395Y-108165730D01*
X269987395Y-107883060D01*
X269932248Y-107605821D01*
X269824075Y-107344668D01*
X269742933Y-107223231D01*
X272823001Y-104143165D01*
X272823001Y-124995000D01*
X191209395Y-124995000D01*
X191209395Y-121569493D01*
X195147395Y-121569493D01*
X195147395Y-122039297D01*
X195239049Y-122500074D01*
X195418835Y-122934116D01*
X195679845Y-123324744D01*
X196012046Y-123656945D01*
X196402674Y-123917955D01*
X196836716Y-124097741D01*
X197297493Y-124189395D01*
X197767297Y-124189395D01*
X198228074Y-124097741D01*
X198662116Y-123917955D01*
X199052744Y-123656945D01*
X199384945Y-123324744D01*
X199645955Y-122934116D01*
X199825741Y-122500074D01*
X199917395Y-122039297D01*
X199917395Y-121569493D01*
X261147395Y-121569493D01*
X261147395Y-122039297D01*
X261239049Y-122500074D01*
X261418835Y-122934116D01*
X261679845Y-123324744D01*
X262012046Y-123656945D01*
X262402674Y-123917955D01*
X262836716Y-124097741D01*
X263297493Y-124189395D01*
X263767297Y-124189395D01*
X264228074Y-124097741D01*
X264662116Y-123917955D01*
X265052744Y-123656945D01*
X265384945Y-123324744D01*
X265645955Y-122934116D01*
X265825741Y-122500074D01*
X265917395Y-122039297D01*
X265917395Y-121569493D01*
X265825741Y-121108716D01*
X265645955Y-120674674D01*
X265384945Y-120284046D01*
X265052744Y-119951845D01*
X264662116Y-119690835D01*
X264228074Y-119511049D01*
X263767297Y-119419395D01*
X263297493Y-119419395D01*
X262836716Y-119511049D01*
X262402674Y-119690835D01*
X262012046Y-119951845D01*
X261679845Y-120284046D01*
X261418835Y-120674674D01*
X261239049Y-121108716D01*
X261147395Y-121569493D01*
X199917395Y-121569493D01*
X199825741Y-121108716D01*
X199645955Y-120674674D01*
X199384945Y-120284046D01*
X199052744Y-119951845D01*
X198662116Y-119690835D01*
X198228074Y-119511049D01*
X197767297Y-119419395D01*
X197297493Y-119419395D01*
X196836716Y-119511049D01*
X196402674Y-119690835D01*
X196012046Y-119951845D01*
X195679845Y-120284046D01*
X195418835Y-120674674D01*
X195239049Y-121108716D01*
X195147395Y-121569493D01*
X191209395Y-121569493D01*
X191209395Y-118043060D01*
X251877395Y-118043060D01*
X251877395Y-118325730D01*
X251932542Y-118602969D01*
X252040715Y-118864122D01*
X252197758Y-119099154D01*
X252397636Y-119299032D01*
X252632668Y-119456075D01*
X252893821Y-119564248D01*
X253171060Y-119619395D01*
X253453730Y-119619395D01*
X253730969Y-119564248D01*
X253992122Y-119456075D01*
X254227154Y-119299032D01*
X254427032Y-119099154D01*
X254503711Y-118984395D01*
X267114323Y-118984395D01*
X267126583Y-119108877D01*
X267162893Y-119228575D01*
X267221858Y-119338889D01*
X267301210Y-119435580D01*
X267397901Y-119514932D01*
X267508215Y-119573897D01*
X267627913Y-119610207D01*
X267752395Y-119622467D01*
X268266645Y-119619395D01*
X268425395Y-119460645D01*
X268425395Y-118311395D01*
X268679395Y-118311395D01*
X268679395Y-119460645D01*
X268838145Y-119619395D01*
X269352395Y-119622467D01*
X269476877Y-119610207D01*
X269596575Y-119573897D01*
X269706889Y-119514932D01*
X269803580Y-119435580D01*
X269882932Y-119338889D01*
X269941897Y-119228575D01*
X269978207Y-119108877D01*
X269990467Y-118984395D01*
X269987395Y-118470145D01*
X269828645Y-118311395D01*
X268679395Y-118311395D01*
X268425395Y-118311395D01*
X267276145Y-118311395D01*
X267117395Y-118470145D01*
X267114323Y-118984395D01*
X254503711Y-118984395D01*
X254584075Y-118864122D01*
X254692248Y-118602969D01*
X254747395Y-118325730D01*
X254747395Y-118043060D01*
X254692248Y-117765821D01*
X254584075Y-117504668D01*
X254427032Y-117269636D01*
X254227154Y-117069758D01*
X253993267Y-116913480D01*
X254053909Y-116881066D01*
X254125492Y-116637097D01*
X253312395Y-115824000D01*
X252499298Y-116637097D01*
X252570881Y-116881066D01*
X252635387Y-116911589D01*
X252632668Y-116912715D01*
X252397636Y-117069758D01*
X252197758Y-117269636D01*
X252040715Y-117504668D01*
X251932542Y-117765821D01*
X251877395Y-118043060D01*
X191209395Y-118043060D01*
X191209395Y-115714907D01*
X251872178Y-115714907D01*
X251913608Y-115994525D01*
X252008792Y-116260687D01*
X252075724Y-116385909D01*
X252319693Y-116457492D01*
X253132790Y-115644395D01*
X253492000Y-115644395D01*
X254305097Y-116457492D01*
X254549066Y-116385909D01*
X254669966Y-116130399D01*
X254738695Y-115856211D01*
X254752612Y-115573883D01*
X254711182Y-115294265D01*
X254615998Y-115028103D01*
X254549066Y-114902881D01*
X254305097Y-114831298D01*
X253492000Y-115644395D01*
X253132790Y-115644395D01*
X252319693Y-114831298D01*
X252075724Y-114902881D01*
X251954824Y-115158391D01*
X251886095Y-115432579D01*
X251872178Y-115714907D01*
X191209395Y-115714907D01*
X191209395Y-112958135D01*
X211187395Y-112958135D01*
X211187395Y-113250655D01*
X211244463Y-113537553D01*
X211356405Y-113807806D01*
X211518920Y-114051027D01*
X211725763Y-114257870D01*
X211968984Y-114420385D01*
X212239237Y-114532327D01*
X212526135Y-114589395D01*
X212818655Y-114589395D01*
X213105553Y-114532327D01*
X213375806Y-114420385D01*
X213619027Y-114257870D01*
X213825870Y-114051027D01*
X213942395Y-113876635D01*
X214058920Y-114051027D01*
X214265763Y-114257870D01*
X214508984Y-114420385D01*
X214779237Y-114532327D01*
X215066135Y-114589395D01*
X215358655Y-114589395D01*
X215645553Y-114532327D01*
X215915806Y-114420385D01*
X216159027Y-114257870D01*
X216365870Y-114051027D01*
X216482395Y-113876635D01*
X216598920Y-114051027D01*
X216805763Y-114257870D01*
X217048984Y-114420385D01*
X217319237Y-114532327D01*
X217606135Y-114589395D01*
X217898655Y-114589395D01*
X218185553Y-114532327D01*
X218455806Y-114420385D01*
X218699027Y-114257870D01*
X218905870Y-114051027D01*
X219022395Y-113876635D01*
X219138920Y-114051027D01*
X219345763Y-114257870D01*
X219588984Y-114420385D01*
X219859237Y-114532327D01*
X220146135Y-114589395D01*
X220438655Y-114589395D01*
X220725553Y-114532327D01*
X220995806Y-114420385D01*
X221239027Y-114257870D01*
X221445870Y-114051027D01*
X221562395Y-113876635D01*
X221678920Y-114051027D01*
X221885763Y-114257870D01*
X222128984Y-114420385D01*
X222399237Y-114532327D01*
X222686135Y-114589395D01*
X222978655Y-114589395D01*
X223265553Y-114532327D01*
X223535806Y-114420385D01*
X223779027Y-114257870D01*
X223985870Y-114051027D01*
X224102395Y-113876635D01*
X224218920Y-114051027D01*
X224425763Y-114257870D01*
X224668984Y-114420385D01*
X224939237Y-114532327D01*
X225226135Y-114589395D01*
X225518655Y-114589395D01*
X225805553Y-114532327D01*
X226075806Y-114420385D01*
X226319027Y-114257870D01*
X226525870Y-114051027D01*
X226647590Y-113868861D01*
X226717217Y-113985750D01*
X226912126Y-114201983D01*
X227145475Y-114376036D01*
X227408296Y-114501220D01*
X227555505Y-114545871D01*
X227785395Y-114424550D01*
X227785395Y-113231395D01*
X227765395Y-113231395D01*
X227765395Y-112977395D01*
X227785395Y-112977395D01*
X227785395Y-111784240D01*
X228039395Y-111784240D01*
X228039395Y-112977395D01*
X228059395Y-112977395D01*
X228059395Y-113231395D01*
X228039395Y-113231395D01*
X228039395Y-114424550D01*
X228269285Y-114545871D01*
X228416494Y-114501220D01*
X228679315Y-114376036D01*
X228912664Y-114201983D01*
X228988429Y-114117929D01*
X229012893Y-114198575D01*
X229071858Y-114308889D01*
X229151210Y-114405580D01*
X229247901Y-114484932D01*
X229358215Y-114543897D01*
X229477913Y-114580207D01*
X229602395Y-114592467D01*
X231302395Y-114592467D01*
X231426877Y-114580207D01*
X231546575Y-114543897D01*
X231656889Y-114484932D01*
X231753580Y-114405580D01*
X231832932Y-114308889D01*
X231891897Y-114198575D01*
X231928207Y-114078877D01*
X231940467Y-113954395D01*
X231940467Y-112254395D01*
X231928207Y-112129913D01*
X231891897Y-112010215D01*
X231832932Y-111899901D01*
X231753580Y-111803210D01*
X231656889Y-111723858D01*
X231546575Y-111664893D01*
X231426877Y-111628583D01*
X231302395Y-111616323D01*
X229602395Y-111616323D01*
X229477913Y-111628583D01*
X229358215Y-111664893D01*
X229247901Y-111723858D01*
X229151210Y-111803210D01*
X229071858Y-111899901D01*
X229012893Y-112010215D01*
X228988429Y-112090861D01*
X228912664Y-112006807D01*
X228679315Y-111832754D01*
X228416494Y-111707570D01*
X228269285Y-111662919D01*
X228039395Y-111784240D01*
X227785395Y-111784240D01*
X227555505Y-111662919D01*
X227408296Y-111707570D01*
X227145475Y-111832754D01*
X226912126Y-112006807D01*
X226717217Y-112223040D01*
X226647590Y-112339929D01*
X226525870Y-112157763D01*
X226319027Y-111950920D01*
X226075806Y-111788405D01*
X225805553Y-111676463D01*
X225518655Y-111619395D01*
X225226135Y-111619395D01*
X224939237Y-111676463D01*
X224668984Y-111788405D01*
X224425763Y-111950920D01*
X224218920Y-112157763D01*
X224102395Y-112332155D01*
X223985870Y-112157763D01*
X223779027Y-111950920D01*
X223535806Y-111788405D01*
X223265553Y-111676463D01*
X222978655Y-111619395D01*
X222686135Y-111619395D01*
X222399237Y-111676463D01*
X222128984Y-111788405D01*
X221885763Y-111950920D01*
X221678920Y-112157763D01*
X221562395Y-112332155D01*
X221445870Y-112157763D01*
X221239027Y-111950920D01*
X220995806Y-111788405D01*
X220725553Y-111676463D01*
X220438655Y-111619395D01*
X220146135Y-111619395D01*
X219859237Y-111676463D01*
X219588984Y-111788405D01*
X219345763Y-111950920D01*
X219138920Y-112157763D01*
X219022395Y-112332155D01*
X218905870Y-112157763D01*
X218699027Y-111950920D01*
X218455806Y-111788405D01*
X218185553Y-111676463D01*
X217898655Y-111619395D01*
X217606135Y-111619395D01*
X217319237Y-111676463D01*
X217048984Y-111788405D01*
X216805763Y-111950920D01*
X216598920Y-112157763D01*
X216482395Y-112332155D01*
X216365870Y-112157763D01*
X216159027Y-111950920D01*
X215915806Y-111788405D01*
X215645553Y-111676463D01*
X215358655Y-111619395D01*
X215066135Y-111619395D01*
X214779237Y-111676463D01*
X214508984Y-111788405D01*
X214265763Y-111950920D01*
X214058920Y-112157763D01*
X213942395Y-112332155D01*
X213825870Y-112157763D01*
X213619027Y-111950920D01*
X213375806Y-111788405D01*
X213105553Y-111676463D01*
X212818655Y-111619395D01*
X212526135Y-111619395D01*
X212239237Y-111676463D01*
X211968984Y-111788405D01*
X211725763Y-111950920D01*
X211518920Y-112157763D01*
X211356405Y-112400984D01*
X211244463Y-112671237D01*
X211187395Y-112958135D01*
X191209395Y-112958135D01*
X191209395Y-101674395D01*
X191206955Y-101649619D01*
X191199728Y-101625794D01*
X191187992Y-101603838D01*
X191172198Y-101584592D01*
X191152952Y-101568798D01*
X191130996Y-101557062D01*
X191107171Y-101549835D01*
X191082395Y-101547395D01*
X172693000Y-101547395D01*
X172693000Y-96202803D01*
X178763395Y-96202803D01*
X178763395Y-96477987D01*
X178817081Y-96747885D01*
X178922390Y-97002122D01*
X179075275Y-97230930D01*
X179269860Y-97425515D01*
X179498668Y-97578400D01*
X179575910Y-97610395D01*
X179498668Y-97642390D01*
X179269860Y-97795275D01*
X179075275Y-97989860D01*
X178922390Y-98218668D01*
X178817081Y-98472905D01*
X178763395Y-98742803D01*
X178763395Y-99017987D01*
X178817081Y-99287885D01*
X178922390Y-99542122D01*
X179075275Y-99770930D01*
X179269860Y-99965515D01*
X179498668Y-100118400D01*
X179752905Y-100223709D01*
X180022803Y-100277395D01*
X180297987Y-100277395D01*
X180567885Y-100223709D01*
X180822122Y-100118400D01*
X181050930Y-99965515D01*
X181245515Y-99770930D01*
X181398400Y-99542122D01*
X181430395Y-99464880D01*
X181462390Y-99542122D01*
X181615275Y-99770930D01*
X181809860Y-99965515D01*
X182038668Y-100118400D01*
X182292905Y-100223709D01*
X182562803Y-100277395D01*
X182837987Y-100277395D01*
X183107885Y-100223709D01*
X183362122Y-100118400D01*
X183590930Y-99965515D01*
X183785515Y-99770930D01*
X183938400Y-99542122D01*
X183970395Y-99464880D01*
X184002390Y-99542122D01*
X184155275Y-99770930D01*
X184349860Y-99965515D01*
X184578668Y-100118400D01*
X184832905Y-100223709D01*
X185102803Y-100277395D01*
X185377987Y-100277395D01*
X185647885Y-100223709D01*
X185902122Y-100118400D01*
X186130930Y-99965515D01*
X186325515Y-99770930D01*
X186478400Y-99542122D01*
X186510395Y-99464880D01*
X186542390Y-99542122D01*
X186695275Y-99770930D01*
X186889860Y-99965515D01*
X187118668Y-100118400D01*
X187372905Y-100223709D01*
X187642803Y-100277395D01*
X187917987Y-100277395D01*
X188187885Y-100223709D01*
X188442122Y-100118400D01*
X188670930Y-99965515D01*
X188865515Y-99770930D01*
X189018400Y-99542122D01*
X189123709Y-99287885D01*
X189177395Y-99017987D01*
X189177395Y-98742803D01*
X189162135Y-98666087D01*
X189859434Y-97968789D01*
X189890936Y-97942936D01*
X189955393Y-97864395D01*
X189994093Y-97817239D01*
X190044433Y-97723060D01*
X190070748Y-97673829D01*
X190117951Y-97518221D01*
X190129895Y-97396948D01*
X190129895Y-97396939D01*
X190133888Y-97356396D01*
X190129895Y-97315853D01*
X190129895Y-91313383D01*
X190205426Y-91237852D01*
X190332374Y-91047861D01*
X190419817Y-90836755D01*
X190464395Y-90612645D01*
X190464395Y-90384145D01*
X190419817Y-90160035D01*
X190332374Y-89948929D01*
X190283742Y-89876145D01*
X209988395Y-89876145D01*
X209988395Y-90104645D01*
X210032973Y-90328755D01*
X210120416Y-90539861D01*
X210247364Y-90729852D01*
X210408938Y-90891426D01*
X210598929Y-91018374D01*
X210810035Y-91105817D01*
X210830896Y-91109966D01*
X210830895Y-96807844D01*
X210826901Y-96848395D01*
X210830895Y-96888945D01*
X210830895Y-96888947D01*
X210842839Y-97010220D01*
X210851558Y-97038962D01*
X210890042Y-97165828D01*
X210966696Y-97309237D01*
X210997339Y-97346575D01*
X211069854Y-97434936D01*
X211101361Y-97460793D01*
X211512395Y-97871827D01*
X211512395Y-97978645D01*
X211556973Y-98202755D01*
X211644416Y-98413861D01*
X211771364Y-98603852D01*
X211932938Y-98765426D01*
X212122929Y-98892374D01*
X212334035Y-98979817D01*
X212558145Y-99024395D01*
X212786645Y-99024395D01*
X213010755Y-98979817D01*
X213221861Y-98892374D01*
X213411852Y-98765426D01*
X213450039Y-98727239D01*
X213506696Y-98833237D01*
X213540609Y-98874560D01*
X213609854Y-98958936D01*
X213641360Y-98984792D01*
X213798395Y-99141828D01*
X213798395Y-99248645D01*
X213842973Y-99472755D01*
X213930416Y-99683861D01*
X214057364Y-99873852D01*
X214218938Y-100035426D01*
X214408929Y-100162374D01*
X214620035Y-100249817D01*
X214844145Y-100294395D01*
X215072645Y-100294395D01*
X215296755Y-100249817D01*
X215507861Y-100162374D01*
X215697852Y-100035426D01*
X215859426Y-99873852D01*
X215986374Y-99683861D01*
X216073817Y-99472755D01*
X216118395Y-99248645D01*
X216118395Y-99020145D01*
X216073817Y-98796035D01*
X215986374Y-98584929D01*
X215859426Y-98394938D01*
X215697852Y-98233364D01*
X215507861Y-98106416D01*
X215296755Y-98018973D01*
X215072645Y-97974395D01*
X215021895Y-97974395D01*
X215021895Y-90792945D01*
X215025889Y-90752395D01*
X215021895Y-90711842D01*
X215009951Y-90590569D01*
X214962748Y-90434961D01*
X214935586Y-90384145D01*
X214886094Y-90291552D01*
X214808786Y-90197353D01*
X214782936Y-90165854D01*
X214751434Y-90140001D01*
X214340395Y-89728962D01*
X214340395Y-89622145D01*
X214295817Y-89398035D01*
X214208374Y-89186929D01*
X214081426Y-88996938D01*
X213919852Y-88835364D01*
X213729861Y-88708416D01*
X213518755Y-88620973D01*
X213294645Y-88576395D01*
X213066145Y-88576395D01*
X212842035Y-88620973D01*
X212630929Y-88708416D01*
X212440938Y-88835364D01*
X212279364Y-88996938D01*
X212152416Y-89186929D01*
X212096636Y-89321593D01*
X212049426Y-89250938D01*
X211887852Y-89089364D01*
X211697861Y-88962416D01*
X211486755Y-88874973D01*
X211262645Y-88830395D01*
X211034145Y-88830395D01*
X210810035Y-88874973D01*
X210598929Y-88962416D01*
X210408938Y-89089364D01*
X210247364Y-89250938D01*
X210120416Y-89440929D01*
X210032973Y-89652035D01*
X209988395Y-89876145D01*
X190283742Y-89876145D01*
X190205426Y-89758938D01*
X190043852Y-89597364D01*
X189853861Y-89470416D01*
X189642755Y-89382973D01*
X189418645Y-89338395D01*
X189190145Y-89338395D01*
X188966035Y-89382973D01*
X188754929Y-89470416D01*
X188564938Y-89597364D01*
X188403364Y-89758938D01*
X188276416Y-89948929D01*
X188188973Y-90160035D01*
X188144395Y-90384145D01*
X188144395Y-90612645D01*
X188188973Y-90836755D01*
X188276416Y-91047861D01*
X188403364Y-91237852D01*
X188478895Y-91313383D01*
X188478896Y-94940733D01*
X188066145Y-94943395D01*
X187907395Y-95102145D01*
X187907395Y-96213395D01*
X187927395Y-96213395D01*
X187927395Y-96467395D01*
X187907395Y-96467395D01*
X187907395Y-96487395D01*
X187653395Y-96487395D01*
X187653395Y-96467395D01*
X187633395Y-96467395D01*
X187633395Y-96213395D01*
X187653395Y-96213395D01*
X187653395Y-95102145D01*
X187494645Y-94943395D01*
X187018395Y-94940323D01*
X186893913Y-94952583D01*
X186774215Y-94988893D01*
X186663901Y-95047858D01*
X186567210Y-95127210D01*
X186487858Y-95223901D01*
X186428893Y-95334215D01*
X186392583Y-95453913D01*
X186384315Y-95537860D01*
X186325515Y-95449860D01*
X186130930Y-95255275D01*
X185902122Y-95102390D01*
X185647885Y-94997081D01*
X185377987Y-94943395D01*
X185102803Y-94943395D01*
X184832905Y-94997081D01*
X184578668Y-95102390D01*
X184349860Y-95255275D01*
X184155275Y-95449860D01*
X184002390Y-95678668D01*
X183970395Y-95755910D01*
X183938400Y-95678668D01*
X183785515Y-95449860D01*
X183590930Y-95255275D01*
X183362122Y-95102390D01*
X183107885Y-94997081D01*
X182837987Y-94943395D01*
X182562803Y-94943395D01*
X182292905Y-94997081D01*
X182038668Y-95102390D01*
X181809860Y-95255275D01*
X181615275Y-95449860D01*
X181462390Y-95678668D01*
X181430395Y-95755910D01*
X181398400Y-95678668D01*
X181245515Y-95449860D01*
X181050930Y-95255275D01*
X180822122Y-95102390D01*
X180567885Y-94997081D01*
X180297987Y-94943395D01*
X180022803Y-94943395D01*
X179752905Y-94997081D01*
X179498668Y-95102390D01*
X179269860Y-95255275D01*
X179075275Y-95449860D01*
X178922390Y-95678668D01*
X178817081Y-95932905D01*
X178763395Y-96202803D01*
X172693000Y-96202803D01*
X172693000Y-88542645D01*
X206686395Y-88542645D01*
X206686395Y-88771145D01*
X206730973Y-88995255D01*
X206818416Y-89206361D01*
X206945364Y-89396352D01*
X207106938Y-89557926D01*
X207296929Y-89684874D01*
X207508035Y-89772317D01*
X207732145Y-89816895D01*
X207960645Y-89816895D01*
X208184755Y-89772317D01*
X208395861Y-89684874D01*
X208585852Y-89557926D01*
X208747426Y-89396352D01*
X208874374Y-89206361D01*
X208961817Y-88995255D01*
X209006395Y-88771145D01*
X209006395Y-88748473D01*
X212149974Y-85604895D01*
X213758407Y-85604895D01*
X213774438Y-85620926D01*
X213964429Y-85747874D01*
X214175535Y-85835317D01*
X214399645Y-85879895D01*
X214628145Y-85879895D01*
X214852255Y-85835317D01*
X215063361Y-85747874D01*
X215253352Y-85620926D01*
X215352992Y-85521286D01*
X239170914Y-85521286D01*
X239268238Y-85795647D01*
X239417217Y-86045750D01*
X239612126Y-86261983D01*
X239845475Y-86436036D01*
X240108296Y-86561220D01*
X240255505Y-86605871D01*
X240485395Y-86484550D01*
X240485395Y-85291395D01*
X239291581Y-85291395D01*
X239170914Y-85521286D01*
X215352992Y-85521286D01*
X215414926Y-85459352D01*
X215541874Y-85269361D01*
X215629317Y-85058255D01*
X215673895Y-84834145D01*
X215673895Y-84807504D01*
X239170914Y-84807504D01*
X239291581Y-85037395D01*
X240485395Y-85037395D01*
X240485395Y-83844240D01*
X240739395Y-83844240D01*
X240739395Y-85037395D01*
X240759395Y-85037395D01*
X240759395Y-85291395D01*
X240739395Y-85291395D01*
X240739395Y-86484550D01*
X240969285Y-86605871D01*
X241116494Y-86561220D01*
X241379315Y-86436036D01*
X241612664Y-86261983D01*
X241807573Y-86045750D01*
X241877200Y-85928861D01*
X241998920Y-86111027D01*
X242205763Y-86317870D01*
X242448984Y-86480385D01*
X242719237Y-86592327D01*
X243006135Y-86649395D01*
X243298655Y-86649395D01*
X243585553Y-86592327D01*
X243855806Y-86480385D01*
X244099027Y-86317870D01*
X244305870Y-86111027D01*
X244422395Y-85936635D01*
X244538920Y-86111027D01*
X244745763Y-86317870D01*
X244988984Y-86480385D01*
X245259237Y-86592327D01*
X245546135Y-86649395D01*
X245838655Y-86649395D01*
X246125553Y-86592327D01*
X246395806Y-86480385D01*
X246639027Y-86317870D01*
X246770882Y-86186015D01*
X246792893Y-86258575D01*
X246851858Y-86368889D01*
X246931210Y-86465580D01*
X247027901Y-86544932D01*
X247138215Y-86603897D01*
X247257913Y-86640207D01*
X247382395Y-86652467D01*
X249082395Y-86652467D01*
X249206877Y-86640207D01*
X249326575Y-86603897D01*
X249436889Y-86544932D01*
X249533580Y-86465580D01*
X249612932Y-86368889D01*
X249671897Y-86258575D01*
X249708207Y-86138877D01*
X249720467Y-86014395D01*
X249720467Y-84314395D01*
X249708207Y-84189913D01*
X249671897Y-84070215D01*
X249612932Y-83959901D01*
X249533580Y-83863210D01*
X249436889Y-83783858D01*
X249326575Y-83724893D01*
X249206877Y-83688583D01*
X249082395Y-83676323D01*
X247382395Y-83676323D01*
X247257913Y-83688583D01*
X247138215Y-83724893D01*
X247027901Y-83783858D01*
X246931210Y-83863210D01*
X246851858Y-83959901D01*
X246792893Y-84070215D01*
X246770882Y-84142775D01*
X246639027Y-84010920D01*
X246395806Y-83848405D01*
X246125553Y-83736463D01*
X245838655Y-83679395D01*
X245546135Y-83679395D01*
X245259237Y-83736463D01*
X244988984Y-83848405D01*
X244745763Y-84010920D01*
X244538920Y-84217763D01*
X244422395Y-84392155D01*
X244305870Y-84217763D01*
X244099027Y-84010920D01*
X243855806Y-83848405D01*
X243585553Y-83736463D01*
X243298655Y-83679395D01*
X243006135Y-83679395D01*
X242719237Y-83736463D01*
X242448984Y-83848405D01*
X242205763Y-84010920D01*
X241998920Y-84217763D01*
X241877200Y-84399929D01*
X241807573Y-84283040D01*
X241612664Y-84066807D01*
X241379315Y-83892754D01*
X241116494Y-83767570D01*
X240969285Y-83722919D01*
X240739395Y-83844240D01*
X240485395Y-83844240D01*
X240255505Y-83722919D01*
X240108296Y-83767570D01*
X239845475Y-83892754D01*
X239612126Y-84066807D01*
X239417217Y-84283040D01*
X239268238Y-84533143D01*
X239170914Y-84807504D01*
X215673895Y-84807504D01*
X215673895Y-84605645D01*
X215629317Y-84381535D01*
X215541874Y-84170429D01*
X215414926Y-83980438D01*
X215253352Y-83818864D01*
X215063361Y-83691916D01*
X214852255Y-83604473D01*
X214628145Y-83559895D01*
X214399645Y-83559895D01*
X214175535Y-83604473D01*
X213964429Y-83691916D01*
X213774438Y-83818864D01*
X213758407Y-83834895D01*
X211826864Y-83834895D01*
X211783395Y-83830614D01*
X211739926Y-83834895D01*
X211739918Y-83834895D01*
X211609905Y-83847700D01*
X211443082Y-83898306D01*
X211327845Y-83959901D01*
X211289336Y-83980484D01*
X211188348Y-84063363D01*
X211188346Y-84063365D01*
X211154578Y-84091078D01*
X211126865Y-84124846D01*
X207754817Y-87496895D01*
X207732145Y-87496895D01*
X207508035Y-87541473D01*
X207296929Y-87628916D01*
X207106938Y-87755864D01*
X206945364Y-87917438D01*
X206818416Y-88107429D01*
X206730973Y-88318535D01*
X206686395Y-88542645D01*
X172693000Y-88542645D01*
X172693000Y-81569493D01*
X174147395Y-81569493D01*
X174147395Y-82039297D01*
X174239049Y-82500074D01*
X174418835Y-82934116D01*
X174679845Y-83324744D01*
X175012046Y-83656945D01*
X175402674Y-83917955D01*
X175836716Y-84097741D01*
X176297493Y-84189395D01*
X176767297Y-84189395D01*
X177228074Y-84097741D01*
X177662116Y-83917955D01*
X178052744Y-83656945D01*
X178384945Y-83324744D01*
X178645955Y-82934116D01*
X178825741Y-82500074D01*
X178917395Y-82039297D01*
X178917395Y-81569493D01*
X178825741Y-81108716D01*
X178645955Y-80674674D01*
X178384945Y-80284046D01*
X178052744Y-79951845D01*
X177662116Y-79690835D01*
X177228074Y-79511049D01*
X176767297Y-79419395D01*
X176297493Y-79419395D01*
X175836716Y-79511049D01*
X175402674Y-79690835D01*
X175012046Y-79951845D01*
X174679845Y-80284046D01*
X174418835Y-80674674D01*
X174239049Y-81108716D01*
X174147395Y-81569493D01*
X172693000Y-81569493D01*
X172693000Y-62965000D01*
X197387210Y-62965000D01*
X197177728Y-63136918D01*
G37*
X197177728Y-63136918D02*
X196910928Y-63462014D01*
X196712679Y-63832913D01*
X196590597Y-64235362D01*
X196549375Y-64653895D01*
X196551408Y-64674536D01*
X194452550Y-66773395D01*
X188501013Y-66773395D01*
X188187362Y-66804287D01*
X187784913Y-66926369D01*
X187414014Y-67124618D01*
X187088918Y-67391418D01*
X186822118Y-67716514D01*
X186623869Y-68087413D01*
X186501787Y-68489862D01*
X186460565Y-68908395D01*
X186480202Y-69107769D01*
X185477895Y-68105463D01*
X185477895Y-66038808D01*
X185599027Y-65957870D01*
X185805870Y-65751027D01*
X185922395Y-65576635D01*
X186038920Y-65751027D01*
X186245763Y-65957870D01*
X186488984Y-66120385D01*
X186759237Y-66232327D01*
X187046135Y-66289395D01*
X187338655Y-66289395D01*
X187625553Y-66232327D01*
X187895806Y-66120385D01*
X188139027Y-65957870D01*
X188345870Y-65751027D01*
X188462395Y-65576635D01*
X188578920Y-65751027D01*
X188785763Y-65957870D01*
X189028984Y-66120385D01*
X189299237Y-66232327D01*
X189586135Y-66289395D01*
X189878655Y-66289395D01*
X190165553Y-66232327D01*
X190435806Y-66120385D01*
X190679027Y-65957870D01*
X190885870Y-65751027D01*
X191048385Y-65507806D01*
X191160327Y-65237553D01*
X191217395Y-64950655D01*
X191217395Y-64658135D01*
X191160327Y-64371237D01*
X191048385Y-64100984D01*
X190885870Y-63857763D01*
X190679027Y-63650920D01*
X190435806Y-63488405D01*
X190165553Y-63376463D01*
X189878655Y-63319395D01*
X189586135Y-63319395D01*
X189299237Y-63376463D01*
X189028984Y-63488405D01*
X188785763Y-63650920D01*
X188578920Y-63857763D01*
X188462395Y-64032155D01*
X188345870Y-63857763D01*
X188139027Y-63650920D01*
X187895806Y-63488405D01*
X187625553Y-63376463D01*
X187338655Y-63319395D01*
X187046135Y-63319395D01*
X186759237Y-63376463D01*
X186488984Y-63488405D01*
X186245763Y-63650920D01*
X186038920Y-63857763D01*
X185922395Y-64032155D01*
X185805870Y-63857763D01*
X185599027Y-63650920D01*
X185355806Y-63488405D01*
X185085553Y-63376463D01*
X184798655Y-63319395D01*
X184506135Y-63319395D01*
X184219237Y-63376463D01*
X183948984Y-63488405D01*
X183705763Y-63650920D01*
X183498920Y-63857763D01*
X183377200Y-64039929D01*
X183307573Y-63923040D01*
X183112664Y-63706807D01*
X182879315Y-63532754D01*
X182616494Y-63407570D01*
X182469285Y-63362919D01*
X182239395Y-63484240D01*
X182239395Y-64677395D01*
X182259395Y-64677395D01*
X182259395Y-64931395D01*
X182239395Y-64931395D01*
X182239395Y-66124550D01*
X182469285Y-66245871D01*
X182616494Y-66201220D01*
X182879315Y-66076036D01*
X183112664Y-65901983D01*
X183307573Y-65685750D01*
X183377200Y-65568861D01*
X183498920Y-65751027D01*
X183705763Y-65957870D01*
X183826896Y-66038808D01*
X183826895Y-67760944D01*
X183736041Y-67624971D01*
X183574467Y-67463397D01*
X183384476Y-67336449D01*
X183173370Y-67249006D01*
X182949260Y-67204428D01*
X182720760Y-67204428D01*
X182595076Y-67229428D01*
X181062560Y-67229428D01*
X180047913Y-66214781D01*
X180275806Y-66120385D01*
X180519027Y-65957870D01*
X180725870Y-65751027D01*
X180847590Y-65568861D01*
X180917217Y-65685750D01*
X181112126Y-65901983D01*
X181345475Y-66076036D01*
X181608296Y-66201220D01*
X181755505Y-66245871D01*
X181985395Y-66124550D01*
X181985395Y-64931395D01*
X181965395Y-64931395D01*
X181965395Y-64677395D01*
X181985395Y-64677395D01*
X181985395Y-63484240D01*
X181755505Y-63362919D01*
X181608296Y-63407570D01*
X181345475Y-63532754D01*
X181112126Y-63706807D01*
X180917217Y-63923040D01*
X180847590Y-64039929D01*
X180725870Y-63857763D01*
X180519027Y-63650920D01*
X180275806Y-63488405D01*
X180005553Y-63376463D01*
X179718655Y-63319395D01*
X179426135Y-63319395D01*
X179139237Y-63376463D01*
X178868984Y-63488405D01*
X178625763Y-63650920D01*
X178493908Y-63782775D01*
X178471897Y-63710215D01*
X178412932Y-63599901D01*
X178333580Y-63503210D01*
X178236889Y-63423858D01*
X178126575Y-63364893D01*
X178006877Y-63328583D01*
X177882395Y-63316323D01*
X176182395Y-63316323D01*
X176057913Y-63328583D01*
X175938215Y-63364893D01*
X175827901Y-63423858D01*
X175731210Y-63503210D01*
X175651858Y-63599901D01*
X175592893Y-63710215D01*
X175556583Y-63829913D01*
X175544323Y-63954395D01*
X175544323Y-65654395D01*
X175556583Y-65778877D01*
X175592893Y-65898575D01*
X175651858Y-66008889D01*
X175731210Y-66105580D01*
X175827901Y-66184932D01*
X175938215Y-66243897D01*
X176057913Y-66280207D01*
X176182395Y-66292467D01*
X176915336Y-66292467D01*
X179750437Y-69127569D01*
X179785979Y-69170877D01*
X179958805Y-69312712D01*
X180091750Y-69383772D01*
X180155981Y-69418104D01*
X180369929Y-69483005D01*
X180592428Y-69504919D01*
X180648179Y-69499428D01*
X182595076Y-69499428D01*
X182720760Y-69524428D01*
X182949260Y-69524428D01*
X183173370Y-69479850D01*
X183384476Y-69392407D01*
X183574467Y-69265459D01*
X183736041Y-69103885D01*
X183862989Y-68913894D01*
X183907841Y-68805611D01*
X183962696Y-68908237D01*
X183962826Y-68908395D01*
X184065854Y-69033936D01*
X184097361Y-69059793D01*
X188669396Y-73631829D01*
X188669395Y-75141907D01*
X188593864Y-75217438D01*
X188466916Y-75407429D01*
X188379473Y-75618535D01*
X188334895Y-75842645D01*
X188334895Y-76071145D01*
X188379473Y-76295255D01*
X188466916Y-76506361D01*
X188593864Y-76696352D01*
X188755438Y-76857926D01*
X188945429Y-76984874D01*
X189156535Y-77072317D01*
X189380645Y-77116895D01*
X189609145Y-77116895D01*
X189833255Y-77072317D01*
X190044361Y-76984874D01*
X190234352Y-76857926D01*
X190395926Y-76696352D01*
X190522874Y-76506361D01*
X190610317Y-76295255D01*
X190654895Y-76071145D01*
X190654895Y-75842645D01*
X190610317Y-75618535D01*
X190522874Y-75407429D01*
X190395926Y-75217438D01*
X190320395Y-75141907D01*
X190320395Y-73631827D01*
X191322328Y-72629895D01*
X195991845Y-72629895D01*
X196032395Y-72633889D01*
X196072945Y-72629895D01*
X196072948Y-72629895D01*
X196194221Y-72617951D01*
X196349829Y-72570748D01*
X196493237Y-72494094D01*
X196618936Y-72390936D01*
X196644793Y-72359429D01*
X197434729Y-71569493D01*
X207647395Y-71569493D01*
X207647395Y-72039297D01*
X207739049Y-72500074D01*
X207918835Y-72934116D01*
X208179845Y-73324744D01*
X208512046Y-73656945D01*
X208902674Y-73917955D01*
X209336716Y-74097741D01*
X209797493Y-74189395D01*
X210267297Y-74189395D01*
X210728074Y-74097741D01*
X211162116Y-73917955D01*
X211552744Y-73656945D01*
X211884945Y-73324744D01*
X212145955Y-72934116D01*
X212325741Y-72500074D01*
X212417395Y-72039297D01*
X212417395Y-71569493D01*
X212325741Y-71108716D01*
X212145955Y-70674674D01*
X211884945Y-70284046D01*
X211552744Y-69951845D01*
X211162116Y-69690835D01*
X210728074Y-69511049D01*
X210267297Y-69419395D01*
X209797493Y-69419395D01*
X209336716Y-69511049D01*
X208902674Y-69690835D01*
X208512046Y-69951845D01*
X208179845Y-70284046D01*
X207918835Y-70674674D01*
X207739049Y-71108716D01*
X207647395Y-71569493D01*
X197434729Y-71569493D01*
X200874328Y-68129895D01*
X216314463Y-68129895D01*
X219405395Y-71220828D01*
X219405395Y-72304395D01*
X219407835Y-72329171D01*
X219415062Y-72352996D01*
X219426798Y-72374952D01*
X219442592Y-72394198D01*
X219461838Y-72409992D01*
X219483794Y-72421728D01*
X219507619Y-72428955D01*
X219532395Y-72431395D01*
X220423629Y-72431395D01*
X220446973Y-72548755D01*
X220534416Y-72759861D01*
X220661364Y-72949852D01*
X220822938Y-73111426D01*
X221012929Y-73238374D01*
X221224035Y-73325817D01*
X221448145Y-73370395D01*
X221676645Y-73370395D01*
X221900755Y-73325817D01*
X222111861Y-73238374D01*
X222301852Y-73111426D01*
X222463426Y-72949852D01*
X222590374Y-72759861D01*
X222677817Y-72548755D01*
X222701161Y-72431395D01*
X249532395Y-72431395D01*
X249557171Y-72428955D01*
X249580996Y-72421728D01*
X249602952Y-72409992D01*
X249622198Y-72394198D01*
X249637992Y-72374952D01*
X249649728Y-72352996D01*
X249656955Y-72329171D01*
X249659395Y-72304395D01*
X249659395Y-67576240D01*
X253760562Y-71677408D01*
X253827418Y-71758872D01*
X253908882Y-71825728D01*
X253908884Y-71825730D01*
X254034496Y-71928817D01*
X254152514Y-72025672D01*
X254523413Y-72223921D01*
X254925862Y-72346003D01*
X255239513Y-72376895D01*
X255239522Y-72376895D01*
X255344394Y-72387224D01*
X255449266Y-72376895D01*
X260238550Y-72376895D01*
X260258885Y-72397230D01*
X260502514Y-72597171D01*
X260737511Y-72722779D01*
X260863119Y-72957776D01*
X261063060Y-73201405D01*
X261274886Y-73413231D01*
X261518514Y-73613171D01*
X261889414Y-73811421D01*
X262291862Y-73933503D01*
X262710395Y-73974724D01*
X263128928Y-73933503D01*
X263531377Y-73811421D01*
X263902276Y-73613171D01*
X264227372Y-73346372D01*
X264494171Y-73021276D01*
X264692421Y-72650377D01*
X264814503Y-72247928D01*
X264855724Y-71829395D01*
X264814503Y-71410862D01*
X264692421Y-71008414D01*
X264494171Y-70637514D01*
X264294231Y-70393886D01*
X264082405Y-70182060D01*
X263838776Y-69982119D01*
X263603779Y-69856511D01*
X263478171Y-69621514D01*
X263278230Y-69377885D01*
X262706732Y-68806387D01*
X262639872Y-68724918D01*
X262631314Y-68717895D01*
X269988462Y-68717895D01*
X270447884Y-69177317D01*
X270447884Y-81550563D01*
X270372839Y-81500419D01*
X270161733Y-81412976D01*
X269937623Y-81368398D01*
X269709123Y-81368398D01*
X269485013Y-81412976D01*
X269273907Y-81500419D01*
X269083916Y-81627367D01*
X269008385Y-81702898D01*
X265704033Y-81702898D01*
X265663482Y-81698904D01*
X265622932Y-81702898D01*
X265622930Y-81702898D01*
X265501657Y-81714842D01*
X265346049Y-81762045D01*
X265202640Y-81838699D01*
X265191473Y-81847864D01*
X265076942Y-81941857D01*
X265051089Y-81973359D01*
X263935564Y-83088885D01*
X263828746Y-83088885D01*
X263664395Y-83121576D01*
X263664395Y-82167883D01*
X263739926Y-82092352D01*
X263866874Y-81902361D01*
X263954317Y-81691255D01*
X263998895Y-81467145D01*
X263998895Y-81238645D01*
X263954317Y-81014535D01*
X263866874Y-80803429D01*
X263739926Y-80613438D01*
X263578352Y-80451864D01*
X263388361Y-80324916D01*
X263177255Y-80237473D01*
X262953145Y-80192895D01*
X262724645Y-80192895D01*
X262500535Y-80237473D01*
X262289429Y-80324916D01*
X262099438Y-80451864D01*
X261937864Y-80613438D01*
X261810916Y-80803429D01*
X261723473Y-81014535D01*
X261678895Y-81238645D01*
X261678895Y-81467145D01*
X261691781Y-81531926D01*
X261622094Y-81401553D01*
X261518936Y-81275854D01*
X261487434Y-81250001D01*
X260714781Y-80477349D01*
X260714781Y-80370531D01*
X260670203Y-80146421D01*
X260582760Y-79935315D01*
X260455812Y-79745324D01*
X260294238Y-79583750D01*
X260104247Y-79456802D01*
X259893141Y-79369359D01*
X259669031Y-79324781D01*
X259440531Y-79324781D01*
X259216421Y-79369359D01*
X259005315Y-79456802D01*
X258815324Y-79583750D01*
X258653750Y-79745324D01*
X258526802Y-79935315D01*
X258439359Y-80146421D01*
X258427955Y-80203753D01*
X258345552Y-80080428D01*
X258183978Y-79918854D01*
X257993987Y-79791906D01*
X257782881Y-79704463D01*
X257558771Y-79659885D01*
X257330271Y-79659885D01*
X257106161Y-79704463D01*
X256895055Y-79791906D01*
X256705064Y-79918854D01*
X256543490Y-80080428D01*
X256416542Y-80270419D01*
X256329099Y-80481525D01*
X256284521Y-80705635D01*
X256284521Y-80934135D01*
X256329099Y-81158245D01*
X256416542Y-81369351D01*
X256543490Y-81559342D01*
X256705064Y-81720916D01*
X256895055Y-81847864D01*
X257106161Y-81935307D01*
X257330271Y-81979885D01*
X257437089Y-81979885D01*
X259090896Y-83633694D01*
X259090896Y-84670113D01*
X259084712Y-84662578D01*
X259050946Y-84634867D01*
X253905429Y-79489351D01*
X253877712Y-79455578D01*
X253742954Y-79344984D01*
X253589208Y-79262806D01*
X253422385Y-79212200D01*
X253292372Y-79199395D01*
X253292364Y-79199395D01*
X253248895Y-79195114D01*
X253205426Y-79199395D01*
X252607383Y-79199395D01*
X252591352Y-79183364D01*
X252401361Y-79056416D01*
X252190255Y-78968973D01*
X251966145Y-78924395D01*
X251737645Y-78924395D01*
X251513535Y-78968973D01*
X251302429Y-79056416D01*
X251112438Y-79183364D01*
X250950864Y-79344938D01*
X250823916Y-79534929D01*
X250736473Y-79746035D01*
X250691895Y-79970145D01*
X250691895Y-80198645D01*
X250736473Y-80422755D01*
X250823916Y-80633861D01*
X250950864Y-80823852D01*
X251112438Y-80985426D01*
X251302429Y-81112374D01*
X251513535Y-81199817D01*
X251737645Y-81244395D01*
X251966145Y-81244395D01*
X252190255Y-81199817D01*
X252401361Y-81112374D01*
X252591352Y-80985426D01*
X252607383Y-80969395D01*
X252882317Y-80969395D01*
X257570895Y-85657974D01*
X257570896Y-91838406D01*
X257554864Y-91854438D01*
X257427916Y-92044429D01*
X257340473Y-92255535D01*
X257295895Y-92479645D01*
X257295895Y-92708145D01*
X257340473Y-92932255D01*
X257427916Y-93143361D01*
X257554864Y-93333352D01*
X257716438Y-93494926D01*
X257906429Y-93621874D01*
X258117535Y-93709317D01*
X258341645Y-93753895D01*
X258570145Y-93753895D01*
X258794255Y-93709317D01*
X259005361Y-93621874D01*
X259090895Y-93564722D01*
X259090895Y-99589407D01*
X259015364Y-99664938D01*
X258888416Y-99854929D01*
X258800973Y-100066035D01*
X258756395Y-100290145D01*
X258756395Y-100518645D01*
X258800973Y-100742755D01*
X258888416Y-100953861D01*
X259015364Y-101143852D01*
X259176938Y-101305426D01*
X259187025Y-101312166D01*
X259142416Y-101378929D01*
X259054973Y-101590035D01*
X259010395Y-101814145D01*
X259010395Y-102042645D01*
X259014027Y-102060905D01*
X257804873Y-102060905D01*
X257729342Y-101985374D01*
X257539351Y-101858426D01*
X257328245Y-101770983D01*
X257104135Y-101726405D01*
X256875635Y-101726405D01*
X256651525Y-101770983D01*
X256440419Y-101858426D01*
X256250428Y-101985374D01*
X256088854Y-102146948D01*
X255961906Y-102336939D01*
X255874463Y-102548045D01*
X255829885Y-102772155D01*
X255829885Y-103000655D01*
X255874463Y-103224765D01*
X255909518Y-103309396D01*
X254844830Y-103309396D01*
X254726452Y-103191018D01*
X254747395Y-103085730D01*
X254747395Y-102803060D01*
X254692248Y-102525821D01*
X254584075Y-102264668D01*
X254427032Y-102029636D01*
X254227154Y-101829758D01*
X253994636Y-101674395D01*
X254227154Y-101519032D01*
X254427032Y-101319154D01*
X254584075Y-101084122D01*
X254692248Y-100822969D01*
X254747395Y-100545730D01*
X254747395Y-100263060D01*
X254692248Y-99985821D01*
X254584075Y-99724668D01*
X254427032Y-99489636D01*
X254227154Y-99289758D01*
X253994636Y-99134395D01*
X254227154Y-98979032D01*
X254427032Y-98779154D01*
X254584075Y-98544122D01*
X254692248Y-98282969D01*
X254747395Y-98005730D01*
X254747395Y-97723060D01*
X254692248Y-97445821D01*
X254584075Y-97184668D01*
X254427032Y-96949636D01*
X254227154Y-96749758D01*
X253994636Y-96594395D01*
X254227154Y-96439032D01*
X254427032Y-96239154D01*
X254584075Y-96004122D01*
X254692248Y-95742969D01*
X254747395Y-95465730D01*
X254747395Y-95183060D01*
X254692248Y-94905821D01*
X254584075Y-94644668D01*
X254427032Y-94409636D01*
X254227154Y-94209758D01*
X253994636Y-94054395D01*
X254227154Y-93899032D01*
X254427032Y-93699154D01*
X254584075Y-93464122D01*
X254692248Y-93202969D01*
X254747395Y-92925730D01*
X254747395Y-92643060D01*
X254692248Y-92365821D01*
X254584075Y-92104668D01*
X254427032Y-91869636D01*
X254227154Y-91669758D01*
X253994636Y-91514395D01*
X254227154Y-91359032D01*
X254427032Y-91159154D01*
X254584075Y-90924122D01*
X254692248Y-90662969D01*
X254747395Y-90385730D01*
X254747395Y-90103060D01*
X254692248Y-89825821D01*
X254584075Y-89564668D01*
X254427032Y-89329636D01*
X254227154Y-89129758D01*
X253994636Y-88974395D01*
X254227154Y-88819032D01*
X254427032Y-88619154D01*
X254584075Y-88384122D01*
X254692248Y-88122969D01*
X254747395Y-87845730D01*
X254747395Y-87563060D01*
X254692248Y-87285821D01*
X254584075Y-87024668D01*
X254427032Y-86789636D01*
X254227154Y-86589758D01*
X253994636Y-86434395D01*
X254227154Y-86279032D01*
X254427032Y-86079154D01*
X254584075Y-85844122D01*
X254692248Y-85582969D01*
X254747395Y-85305730D01*
X254747395Y-85023060D01*
X254692248Y-84745821D01*
X254584075Y-84484668D01*
X254427032Y-84249636D01*
X254227154Y-84049758D01*
X253992122Y-83892715D01*
X253730969Y-83784542D01*
X253453730Y-83729395D01*
X253171060Y-83729395D01*
X252893821Y-83784542D01*
X252632668Y-83892715D01*
X252397636Y-84049758D01*
X252197758Y-84249636D01*
X252040715Y-84484668D01*
X251932542Y-84745821D01*
X251877395Y-85023060D01*
X251877395Y-85305730D01*
X251932542Y-85582969D01*
X252040715Y-85844122D01*
X252197758Y-86079154D01*
X252397636Y-86279032D01*
X252630154Y-86434395D01*
X252397636Y-86589758D01*
X252197758Y-86789636D01*
X252040715Y-87024668D01*
X251932542Y-87285821D01*
X251877395Y-87563060D01*
X251877395Y-87845730D01*
X251932542Y-88122969D01*
X252040715Y-88384122D01*
X252197758Y-88619154D01*
X252397636Y-88819032D01*
X252630154Y-88974395D01*
X252397636Y-89129758D01*
X252197758Y-89329636D01*
X252040715Y-89564668D01*
X251932542Y-89825821D01*
X251877395Y-90103060D01*
X251877395Y-90181962D01*
X251130793Y-89435361D01*
X251104936Y-89403854D01*
X250979237Y-89300696D01*
X250835829Y-89224042D01*
X250680221Y-89176839D01*
X250558948Y-89164895D01*
X250558945Y-89164895D01*
X250518395Y-89160901D01*
X250477845Y-89164895D01*
X238379383Y-89164895D01*
X238303852Y-89089364D01*
X238113861Y-88962416D01*
X237902755Y-88874973D01*
X237678645Y-88830395D01*
X237450145Y-88830395D01*
X237226035Y-88874973D01*
X237014929Y-88962416D01*
X236824938Y-89089364D01*
X236663364Y-89250938D01*
X236536416Y-89440929D01*
X236448973Y-89652035D01*
X236404395Y-89876145D01*
X236404395Y-89901593D01*
X236378755Y-89890973D01*
X236154645Y-89846395D01*
X235926145Y-89846395D01*
X235702035Y-89890973D01*
X235490929Y-89978416D01*
X235300938Y-90105364D01*
X235139364Y-90266938D01*
X235012416Y-90456929D01*
X234924973Y-90668035D01*
X234880395Y-90892145D01*
X234880395Y-91120645D01*
X234924973Y-91344755D01*
X235012416Y-91555861D01*
X235139364Y-91745852D01*
X235300938Y-91907426D01*
X235490929Y-92034374D01*
X235702035Y-92121817D01*
X235926145Y-92166395D01*
X236154645Y-92166395D01*
X236378755Y-92121817D01*
X236589861Y-92034374D01*
X236779852Y-91907426D01*
X236855383Y-91831895D01*
X248652463Y-91831895D01*
X251898339Y-95077771D01*
X251877395Y-95183060D01*
X251877395Y-95465730D01*
X251932542Y-95742969D01*
X252040715Y-96004122D01*
X252197758Y-96239154D01*
X252397636Y-96439032D01*
X252630154Y-96594395D01*
X252397636Y-96749758D01*
X252197758Y-96949636D01*
X252040715Y-97184668D01*
X251932542Y-97445821D01*
X251877395Y-97723060D01*
X251877395Y-98005730D01*
X251932542Y-98282969D01*
X252040715Y-98544122D01*
X252197758Y-98779154D01*
X252397636Y-98979032D01*
X252630154Y-99134395D01*
X252397636Y-99289758D01*
X252197758Y-99489636D01*
X252040715Y-99724668D01*
X251932542Y-99985821D01*
X251877395Y-100263060D01*
X251877395Y-100545730D01*
X251932542Y-100822969D01*
X252040715Y-101084122D01*
X252197758Y-101319154D01*
X252397636Y-101519032D01*
X252630154Y-101674395D01*
X252397636Y-101829758D01*
X252197758Y-102029636D01*
X252040715Y-102264668D01*
X251932542Y-102525821D01*
X251877395Y-102803060D01*
X251877395Y-103085730D01*
X251932542Y-103362969D01*
X252040715Y-103624122D01*
X252197758Y-103859154D01*
X252397636Y-104059032D01*
X252630154Y-104214395D01*
X252397636Y-104369758D01*
X252197758Y-104569636D01*
X252040715Y-104804668D01*
X251932542Y-105065821D01*
X251877395Y-105343060D01*
X251877395Y-105625730D01*
X251932542Y-105902969D01*
X252040715Y-106164122D01*
X252197758Y-106399154D01*
X252397636Y-106599032D01*
X252630154Y-106754395D01*
X252397636Y-106909758D01*
X252197758Y-107109636D01*
X252040715Y-107344668D01*
X251932542Y-107605821D01*
X251877395Y-107883060D01*
X251877395Y-108165730D01*
X251932542Y-108442969D01*
X252040715Y-108704122D01*
X252197758Y-108939154D01*
X252397636Y-109139032D01*
X252630154Y-109294395D01*
X252397636Y-109449758D01*
X252197758Y-109649636D01*
X252040715Y-109884668D01*
X251932542Y-110145821D01*
X251877395Y-110423060D01*
X251877395Y-110705730D01*
X251932542Y-110982969D01*
X252040715Y-111244122D01*
X252197758Y-111479154D01*
X252397636Y-111679032D01*
X252630154Y-111834395D01*
X252397636Y-111989758D01*
X252197758Y-112189636D01*
X252040715Y-112424668D01*
X251932542Y-112685821D01*
X251877395Y-112963060D01*
X251877395Y-113245730D01*
X251932542Y-113522969D01*
X252040715Y-113784122D01*
X252197758Y-114019154D01*
X252397636Y-114219032D01*
X252631523Y-114375310D01*
X252570881Y-114407724D01*
X252499298Y-114651693D01*
X253312395Y-115464790D01*
X254125492Y-114651693D01*
X254053909Y-114407724D01*
X253989403Y-114377201D01*
X253992122Y-114376075D01*
X254227154Y-114219032D01*
X254427032Y-114019154D01*
X254584075Y-113784122D01*
X254692248Y-113522969D01*
X254747395Y-113245730D01*
X254747395Y-112963060D01*
X254692248Y-112685821D01*
X254584075Y-112424668D01*
X254427032Y-112189636D01*
X254227154Y-111989758D01*
X253994636Y-111834395D01*
X254227154Y-111679032D01*
X254427032Y-111479154D01*
X254584075Y-111244122D01*
X254692248Y-110982969D01*
X254747395Y-110705730D01*
X254747395Y-110423060D01*
X254692248Y-110145821D01*
X254584075Y-109884668D01*
X254427032Y-109649636D01*
X254227154Y-109449758D01*
X253994636Y-109294395D01*
X254227154Y-109139032D01*
X254427032Y-108939154D01*
X254584075Y-108704122D01*
X254692248Y-108442969D01*
X254747395Y-108165730D01*
X254747395Y-107883060D01*
X254692248Y-107605821D01*
X254648580Y-107500396D01*
X267216210Y-107500396D01*
X267172542Y-107605821D01*
X267117395Y-107883060D01*
X267117395Y-108165730D01*
X267172542Y-108442969D01*
X267280715Y-108704122D01*
X267437758Y-108939154D01*
X267637636Y-109139032D01*
X267870154Y-109294395D01*
X267637636Y-109449758D01*
X267437758Y-109649636D01*
X267280715Y-109884668D01*
X267172542Y-110145821D01*
X267117395Y-110423060D01*
X267117395Y-110705730D01*
X267172542Y-110982969D01*
X267280715Y-111244122D01*
X267437758Y-111479154D01*
X267637636Y-111679032D01*
X267870154Y-111834395D01*
X267637636Y-111989758D01*
X267437758Y-112189636D01*
X267280715Y-112424668D01*
X267172542Y-112685821D01*
X267117395Y-112963060D01*
X267117395Y-113245730D01*
X267172542Y-113522969D01*
X267280715Y-113784122D01*
X267437758Y-114019154D01*
X267637636Y-114219032D01*
X267870154Y-114374395D01*
X267637636Y-114529758D01*
X267437758Y-114729636D01*
X267280715Y-114964668D01*
X267172542Y-115225821D01*
X267117395Y-115503060D01*
X267117395Y-115785730D01*
X267172542Y-116062969D01*
X267280715Y-116324122D01*
X267437758Y-116559154D01*
X267636356Y-116757752D01*
X267627913Y-116758583D01*
X267508215Y-116794893D01*
X267397901Y-116853858D01*
X267301210Y-116933210D01*
X267221858Y-117029901D01*
X267162893Y-117140215D01*
X267126583Y-117259913D01*
X267114323Y-117384395D01*
X267117395Y-117898645D01*
X267276145Y-118057395D01*
X268425395Y-118057395D01*
X268425395Y-118037395D01*
X268679395Y-118037395D01*
X268679395Y-118057395D01*
X269828645Y-118057395D01*
X269987395Y-117898645D01*
X269990467Y-117384395D01*
X269978207Y-117259913D01*
X269941897Y-117140215D01*
X269882932Y-117029901D01*
X269803580Y-116933210D01*
X269706889Y-116853858D01*
X269596575Y-116794893D01*
X269476877Y-116758583D01*
X269468434Y-116757752D01*
X269667032Y-116559154D01*
X269824075Y-116324122D01*
X269932248Y-116062969D01*
X269987395Y-115785730D01*
X269987395Y-115503060D01*
X269932248Y-115225821D01*
X269824075Y-114964668D01*
X269667032Y-114729636D01*
X269467154Y-114529758D01*
X269234636Y-114374395D01*
X269467154Y-114219032D01*
X269667032Y-114019154D01*
X269824075Y-113784122D01*
X269932248Y-113522969D01*
X269987395Y-113245730D01*
X269987395Y-112963060D01*
X269932248Y-112685821D01*
X269824075Y-112424668D01*
X269667032Y-112189636D01*
X269467154Y-111989758D01*
X269234636Y-111834395D01*
X269467154Y-111679032D01*
X269667032Y-111479154D01*
X269824075Y-111244122D01*
X269932248Y-110982969D01*
X269987395Y-110705730D01*
X269987395Y-110423060D01*
X269932248Y-110145821D01*
X269824075Y-109884668D01*
X269667032Y-109649636D01*
X269467154Y-109449758D01*
X269234636Y-109294395D01*
X269467154Y-109139032D01*
X269667032Y-108939154D01*
X269824075Y-108704122D01*
X269932248Y-108442969D01*
X269987395Y-108165730D01*
X269987395Y-107883060D01*
X269932248Y-107605821D01*
X269824075Y-107344668D01*
X269742933Y-107223231D01*
X272823001Y-104143165D01*
X272823001Y-124995000D01*
X191209395Y-124995000D01*
X191209395Y-121569493D01*
X195147395Y-121569493D01*
X195147395Y-122039297D01*
X195239049Y-122500074D01*
X195418835Y-122934116D01*
X195679845Y-123324744D01*
X196012046Y-123656945D01*
X196402674Y-123917955D01*
X196836716Y-124097741D01*
X197297493Y-124189395D01*
X197767297Y-124189395D01*
X198228074Y-124097741D01*
X198662116Y-123917955D01*
X199052744Y-123656945D01*
X199384945Y-123324744D01*
X199645955Y-122934116D01*
X199825741Y-122500074D01*
X199917395Y-122039297D01*
X199917395Y-121569493D01*
X261147395Y-121569493D01*
X261147395Y-122039297D01*
X261239049Y-122500074D01*
X261418835Y-122934116D01*
X261679845Y-123324744D01*
X262012046Y-123656945D01*
X262402674Y-123917955D01*
X262836716Y-124097741D01*
X263297493Y-124189395D01*
X263767297Y-124189395D01*
X264228074Y-124097741D01*
X264662116Y-123917955D01*
X265052744Y-123656945D01*
X265384945Y-123324744D01*
X265645955Y-122934116D01*
X265825741Y-122500074D01*
X265917395Y-122039297D01*
X265917395Y-121569493D01*
X265825741Y-121108716D01*
X265645955Y-120674674D01*
X265384945Y-120284046D01*
X265052744Y-119951845D01*
X264662116Y-119690835D01*
X264228074Y-119511049D01*
X263767297Y-119419395D01*
X263297493Y-119419395D01*
X262836716Y-119511049D01*
X262402674Y-119690835D01*
X262012046Y-119951845D01*
X261679845Y-120284046D01*
X261418835Y-120674674D01*
X261239049Y-121108716D01*
X261147395Y-121569493D01*
X199917395Y-121569493D01*
X199825741Y-121108716D01*
X199645955Y-120674674D01*
X199384945Y-120284046D01*
X199052744Y-119951845D01*
X198662116Y-119690835D01*
X198228074Y-119511049D01*
X197767297Y-119419395D01*
X197297493Y-119419395D01*
X196836716Y-119511049D01*
X196402674Y-119690835D01*
X196012046Y-119951845D01*
X195679845Y-120284046D01*
X195418835Y-120674674D01*
X195239049Y-121108716D01*
X195147395Y-121569493D01*
X191209395Y-121569493D01*
X191209395Y-118043060D01*
X251877395Y-118043060D01*
X251877395Y-118325730D01*
X251932542Y-118602969D01*
X252040715Y-118864122D01*
X252197758Y-119099154D01*
X252397636Y-119299032D01*
X252632668Y-119456075D01*
X252893821Y-119564248D01*
X253171060Y-119619395D01*
X253453730Y-119619395D01*
X253730969Y-119564248D01*
X253992122Y-119456075D01*
X254227154Y-119299032D01*
X254427032Y-119099154D01*
X254503711Y-118984395D01*
X267114323Y-118984395D01*
X267126583Y-119108877D01*
X267162893Y-119228575D01*
X267221858Y-119338889D01*
X267301210Y-119435580D01*
X267397901Y-119514932D01*
X267508215Y-119573897D01*
X267627913Y-119610207D01*
X267752395Y-119622467D01*
X268266645Y-119619395D01*
X268425395Y-119460645D01*
X268425395Y-118311395D01*
X268679395Y-118311395D01*
X268679395Y-119460645D01*
X268838145Y-119619395D01*
X269352395Y-119622467D01*
X269476877Y-119610207D01*
X269596575Y-119573897D01*
X269706889Y-119514932D01*
X269803580Y-119435580D01*
X269882932Y-119338889D01*
X269941897Y-119228575D01*
X269978207Y-119108877D01*
X269990467Y-118984395D01*
X269987395Y-118470145D01*
X269828645Y-118311395D01*
X268679395Y-118311395D01*
X268425395Y-118311395D01*
X267276145Y-118311395D01*
X267117395Y-118470145D01*
X267114323Y-118984395D01*
X254503711Y-118984395D01*
X254584075Y-118864122D01*
X254692248Y-118602969D01*
X254747395Y-118325730D01*
X254747395Y-118043060D01*
X254692248Y-117765821D01*
X254584075Y-117504668D01*
X254427032Y-117269636D01*
X254227154Y-117069758D01*
X253993267Y-116913480D01*
X254053909Y-116881066D01*
X254125492Y-116637097D01*
X253312395Y-115824000D01*
X252499298Y-116637097D01*
X252570881Y-116881066D01*
X252635387Y-116911589D01*
X252632668Y-116912715D01*
X252397636Y-117069758D01*
X252197758Y-117269636D01*
X252040715Y-117504668D01*
X251932542Y-117765821D01*
X251877395Y-118043060D01*
X191209395Y-118043060D01*
X191209395Y-115714907D01*
X251872178Y-115714907D01*
X251913608Y-115994525D01*
X252008792Y-116260687D01*
X252075724Y-116385909D01*
X252319693Y-116457492D01*
X253132790Y-115644395D01*
X253492000Y-115644395D01*
X254305097Y-116457492D01*
X254549066Y-116385909D01*
X254669966Y-116130399D01*
X254738695Y-115856211D01*
X254752612Y-115573883D01*
X254711182Y-115294265D01*
X254615998Y-115028103D01*
X254549066Y-114902881D01*
X254305097Y-114831298D01*
X253492000Y-115644395D01*
X253132790Y-115644395D01*
X252319693Y-114831298D01*
X252075724Y-114902881D01*
X251954824Y-115158391D01*
X251886095Y-115432579D01*
X251872178Y-115714907D01*
X191209395Y-115714907D01*
X191209395Y-112958135D01*
X211187395Y-112958135D01*
X211187395Y-113250655D01*
X211244463Y-113537553D01*
X211356405Y-113807806D01*
X211518920Y-114051027D01*
X211725763Y-114257870D01*
X211968984Y-114420385D01*
X212239237Y-114532327D01*
X212526135Y-114589395D01*
X212818655Y-114589395D01*
X213105553Y-114532327D01*
X213375806Y-114420385D01*
X213619027Y-114257870D01*
X213825870Y-114051027D01*
X213942395Y-113876635D01*
X214058920Y-114051027D01*
X214265763Y-114257870D01*
X214508984Y-114420385D01*
X214779237Y-114532327D01*
X215066135Y-114589395D01*
X215358655Y-114589395D01*
X215645553Y-114532327D01*
X215915806Y-114420385D01*
X216159027Y-114257870D01*
X216365870Y-114051027D01*
X216482395Y-113876635D01*
X216598920Y-114051027D01*
X216805763Y-114257870D01*
X217048984Y-114420385D01*
X217319237Y-114532327D01*
X217606135Y-114589395D01*
X217898655Y-114589395D01*
X218185553Y-114532327D01*
X218455806Y-114420385D01*
X218699027Y-114257870D01*
X218905870Y-114051027D01*
X219022395Y-113876635D01*
X219138920Y-114051027D01*
X219345763Y-114257870D01*
X219588984Y-114420385D01*
X219859237Y-114532327D01*
X220146135Y-114589395D01*
X220438655Y-114589395D01*
X220725553Y-114532327D01*
X220995806Y-114420385D01*
X221239027Y-114257870D01*
X221445870Y-114051027D01*
X221562395Y-113876635D01*
X221678920Y-114051027D01*
X221885763Y-114257870D01*
X222128984Y-114420385D01*
X222399237Y-114532327D01*
X222686135Y-114589395D01*
X222978655Y-114589395D01*
X223265553Y-114532327D01*
X223535806Y-114420385D01*
X223779027Y-114257870D01*
X223985870Y-114051027D01*
X224102395Y-113876635D01*
X224218920Y-114051027D01*
X224425763Y-114257870D01*
X224668984Y-114420385D01*
X224939237Y-114532327D01*
X225226135Y-114589395D01*
X225518655Y-114589395D01*
X225805553Y-114532327D01*
X226075806Y-114420385D01*
X226319027Y-114257870D01*
X226525870Y-114051027D01*
X226647590Y-113868861D01*
X226717217Y-113985750D01*
X226912126Y-114201983D01*
X227145475Y-114376036D01*
X227408296Y-114501220D01*
X227555505Y-114545871D01*
X227785395Y-114424550D01*
X227785395Y-113231395D01*
X227765395Y-113231395D01*
X227765395Y-112977395D01*
X227785395Y-112977395D01*
X227785395Y-111784240D01*
X228039395Y-111784240D01*
X228039395Y-112977395D01*
X228059395Y-112977395D01*
X228059395Y-113231395D01*
X228039395Y-113231395D01*
X228039395Y-114424550D01*
X228269285Y-114545871D01*
X228416494Y-114501220D01*
X228679315Y-114376036D01*
X228912664Y-114201983D01*
X228988429Y-114117929D01*
X229012893Y-114198575D01*
X229071858Y-114308889D01*
X229151210Y-114405580D01*
X229247901Y-114484932D01*
X229358215Y-114543897D01*
X229477913Y-114580207D01*
X229602395Y-114592467D01*
X231302395Y-114592467D01*
X231426877Y-114580207D01*
X231546575Y-114543897D01*
X231656889Y-114484932D01*
X231753580Y-114405580D01*
X231832932Y-114308889D01*
X231891897Y-114198575D01*
X231928207Y-114078877D01*
X231940467Y-113954395D01*
X231940467Y-112254395D01*
X231928207Y-112129913D01*
X231891897Y-112010215D01*
X231832932Y-111899901D01*
X231753580Y-111803210D01*
X231656889Y-111723858D01*
X231546575Y-111664893D01*
X231426877Y-111628583D01*
X231302395Y-111616323D01*
X229602395Y-111616323D01*
X229477913Y-111628583D01*
X229358215Y-111664893D01*
X229247901Y-111723858D01*
X229151210Y-111803210D01*
X229071858Y-111899901D01*
X229012893Y-112010215D01*
X228988429Y-112090861D01*
X228912664Y-112006807D01*
X228679315Y-111832754D01*
X228416494Y-111707570D01*
X228269285Y-111662919D01*
X228039395Y-111784240D01*
X227785395Y-111784240D01*
X227555505Y-111662919D01*
X227408296Y-111707570D01*
X227145475Y-111832754D01*
X226912126Y-112006807D01*
X226717217Y-112223040D01*
X226647590Y-112339929D01*
X226525870Y-112157763D01*
X226319027Y-111950920D01*
X226075806Y-111788405D01*
X225805553Y-111676463D01*
X225518655Y-111619395D01*
X225226135Y-111619395D01*
X224939237Y-111676463D01*
X224668984Y-111788405D01*
X224425763Y-111950920D01*
X224218920Y-112157763D01*
X224102395Y-112332155D01*
X223985870Y-112157763D01*
X223779027Y-111950920D01*
X223535806Y-111788405D01*
X223265553Y-111676463D01*
X222978655Y-111619395D01*
X222686135Y-111619395D01*
X222399237Y-111676463D01*
X222128984Y-111788405D01*
X221885763Y-111950920D01*
X221678920Y-112157763D01*
X221562395Y-112332155D01*
X221445870Y-112157763D01*
X221239027Y-111950920D01*
X220995806Y-111788405D01*
X220725553Y-111676463D01*
X220438655Y-111619395D01*
X220146135Y-111619395D01*
X219859237Y-111676463D01*
X219588984Y-111788405D01*
X219345763Y-111950920D01*
X219138920Y-112157763D01*
X219022395Y-112332155D01*
X218905870Y-112157763D01*
X218699027Y-111950920D01*
X218455806Y-111788405D01*
X218185553Y-111676463D01*
X217898655Y-111619395D01*
X217606135Y-111619395D01*
X217319237Y-111676463D01*
X217048984Y-111788405D01*
X216805763Y-111950920D01*
X216598920Y-112157763D01*
X216482395Y-112332155D01*
X216365870Y-112157763D01*
X216159027Y-111950920D01*
X215915806Y-111788405D01*
X215645553Y-111676463D01*
X215358655Y-111619395D01*
X215066135Y-111619395D01*
X214779237Y-111676463D01*
X214508984Y-111788405D01*
X214265763Y-111950920D01*
X214058920Y-112157763D01*
X213942395Y-112332155D01*
X213825870Y-112157763D01*
X213619027Y-111950920D01*
X213375806Y-111788405D01*
X213105553Y-111676463D01*
X212818655Y-111619395D01*
X212526135Y-111619395D01*
X212239237Y-111676463D01*
X211968984Y-111788405D01*
X211725763Y-111950920D01*
X211518920Y-112157763D01*
X211356405Y-112400984D01*
X211244463Y-112671237D01*
X211187395Y-112958135D01*
X191209395Y-112958135D01*
X191209395Y-101674395D01*
X191206955Y-101649619D01*
X191199728Y-101625794D01*
X191187992Y-101603838D01*
X191172198Y-101584592D01*
X191152952Y-101568798D01*
X191130996Y-101557062D01*
X191107171Y-101549835D01*
X191082395Y-101547395D01*
X172693000Y-101547395D01*
X172693000Y-96202803D01*
X178763395Y-96202803D01*
X178763395Y-96477987D01*
X178817081Y-96747885D01*
X178922390Y-97002122D01*
X179075275Y-97230930D01*
X179269860Y-97425515D01*
X179498668Y-97578400D01*
X179575910Y-97610395D01*
X179498668Y-97642390D01*
X179269860Y-97795275D01*
X179075275Y-97989860D01*
X178922390Y-98218668D01*
X178817081Y-98472905D01*
X178763395Y-98742803D01*
X178763395Y-99017987D01*
X178817081Y-99287885D01*
X178922390Y-99542122D01*
X179075275Y-99770930D01*
X179269860Y-99965515D01*
X179498668Y-100118400D01*
X179752905Y-100223709D01*
X180022803Y-100277395D01*
X180297987Y-100277395D01*
X180567885Y-100223709D01*
X180822122Y-100118400D01*
X181050930Y-99965515D01*
X181245515Y-99770930D01*
X181398400Y-99542122D01*
X181430395Y-99464880D01*
X181462390Y-99542122D01*
X181615275Y-99770930D01*
X181809860Y-99965515D01*
X182038668Y-100118400D01*
X182292905Y-100223709D01*
X182562803Y-100277395D01*
X182837987Y-100277395D01*
X183107885Y-100223709D01*
X183362122Y-100118400D01*
X183590930Y-99965515D01*
X183785515Y-99770930D01*
X183938400Y-99542122D01*
X183970395Y-99464880D01*
X184002390Y-99542122D01*
X184155275Y-99770930D01*
X184349860Y-99965515D01*
X184578668Y-100118400D01*
X184832905Y-100223709D01*
X185102803Y-100277395D01*
X185377987Y-100277395D01*
X185647885Y-100223709D01*
X185902122Y-100118400D01*
X186130930Y-99965515D01*
X186325515Y-99770930D01*
X186478400Y-99542122D01*
X186510395Y-99464880D01*
X186542390Y-99542122D01*
X186695275Y-99770930D01*
X186889860Y-99965515D01*
X187118668Y-100118400D01*
X187372905Y-100223709D01*
X187642803Y-100277395D01*
X187917987Y-100277395D01*
X188187885Y-100223709D01*
X188442122Y-100118400D01*
X188670930Y-99965515D01*
X188865515Y-99770930D01*
X189018400Y-99542122D01*
X189123709Y-99287885D01*
X189177395Y-99017987D01*
X189177395Y-98742803D01*
X189162135Y-98666087D01*
X189859434Y-97968789D01*
X189890936Y-97942936D01*
X189955393Y-97864395D01*
X189994093Y-97817239D01*
X190044433Y-97723060D01*
X190070748Y-97673829D01*
X190117951Y-97518221D01*
X190129895Y-97396948D01*
X190129895Y-97396939D01*
X190133888Y-97356396D01*
X190129895Y-97315853D01*
X190129895Y-91313383D01*
X190205426Y-91237852D01*
X190332374Y-91047861D01*
X190419817Y-90836755D01*
X190464395Y-90612645D01*
X190464395Y-90384145D01*
X190419817Y-90160035D01*
X190332374Y-89948929D01*
X190283742Y-89876145D01*
X209988395Y-89876145D01*
X209988395Y-90104645D01*
X210032973Y-90328755D01*
X210120416Y-90539861D01*
X210247364Y-90729852D01*
X210408938Y-90891426D01*
X210598929Y-91018374D01*
X210810035Y-91105817D01*
X210830896Y-91109966D01*
X210830895Y-96807844D01*
X210826901Y-96848395D01*
X210830895Y-96888945D01*
X210830895Y-96888947D01*
X210842839Y-97010220D01*
X210851558Y-97038962D01*
X210890042Y-97165828D01*
X210966696Y-97309237D01*
X210997339Y-97346575D01*
X211069854Y-97434936D01*
X211101361Y-97460793D01*
X211512395Y-97871827D01*
X211512395Y-97978645D01*
X211556973Y-98202755D01*
X211644416Y-98413861D01*
X211771364Y-98603852D01*
X211932938Y-98765426D01*
X212122929Y-98892374D01*
X212334035Y-98979817D01*
X212558145Y-99024395D01*
X212786645Y-99024395D01*
X213010755Y-98979817D01*
X213221861Y-98892374D01*
X213411852Y-98765426D01*
X213450039Y-98727239D01*
X213506696Y-98833237D01*
X213540609Y-98874560D01*
X213609854Y-98958936D01*
X213641360Y-98984792D01*
X213798395Y-99141828D01*
X213798395Y-99248645D01*
X213842973Y-99472755D01*
X213930416Y-99683861D01*
X214057364Y-99873852D01*
X214218938Y-100035426D01*
X214408929Y-100162374D01*
X214620035Y-100249817D01*
X214844145Y-100294395D01*
X215072645Y-100294395D01*
X215296755Y-100249817D01*
X215507861Y-100162374D01*
X215697852Y-100035426D01*
X215859426Y-99873852D01*
X215986374Y-99683861D01*
X216073817Y-99472755D01*
X216118395Y-99248645D01*
X216118395Y-99020145D01*
X216073817Y-98796035D01*
X215986374Y-98584929D01*
X215859426Y-98394938D01*
X215697852Y-98233364D01*
X215507861Y-98106416D01*
X215296755Y-98018973D01*
X215072645Y-97974395D01*
X215021895Y-97974395D01*
X215021895Y-90792945D01*
X215025889Y-90752395D01*
X215021895Y-90711842D01*
X215009951Y-90590569D01*
X214962748Y-90434961D01*
X214935586Y-90384145D01*
X214886094Y-90291552D01*
X214808786Y-90197353D01*
X214782936Y-90165854D01*
X214751434Y-90140001D01*
X214340395Y-89728962D01*
X214340395Y-89622145D01*
X214295817Y-89398035D01*
X214208374Y-89186929D01*
X214081426Y-88996938D01*
X213919852Y-88835364D01*
X213729861Y-88708416D01*
X213518755Y-88620973D01*
X213294645Y-88576395D01*
X213066145Y-88576395D01*
X212842035Y-88620973D01*
X212630929Y-88708416D01*
X212440938Y-88835364D01*
X212279364Y-88996938D01*
X212152416Y-89186929D01*
X212096636Y-89321593D01*
X212049426Y-89250938D01*
X211887852Y-89089364D01*
X211697861Y-88962416D01*
X211486755Y-88874973D01*
X211262645Y-88830395D01*
X211034145Y-88830395D01*
X210810035Y-88874973D01*
X210598929Y-88962416D01*
X210408938Y-89089364D01*
X210247364Y-89250938D01*
X210120416Y-89440929D01*
X210032973Y-89652035D01*
X209988395Y-89876145D01*
X190283742Y-89876145D01*
X190205426Y-89758938D01*
X190043852Y-89597364D01*
X189853861Y-89470416D01*
X189642755Y-89382973D01*
X189418645Y-89338395D01*
X189190145Y-89338395D01*
X188966035Y-89382973D01*
X188754929Y-89470416D01*
X188564938Y-89597364D01*
X188403364Y-89758938D01*
X188276416Y-89948929D01*
X188188973Y-90160035D01*
X188144395Y-90384145D01*
X188144395Y-90612645D01*
X188188973Y-90836755D01*
X188276416Y-91047861D01*
X188403364Y-91237852D01*
X188478895Y-91313383D01*
X188478896Y-94940733D01*
X188066145Y-94943395D01*
X187907395Y-95102145D01*
X187907395Y-96213395D01*
X187927395Y-96213395D01*
X187927395Y-96467395D01*
X187907395Y-96467395D01*
X187907395Y-96487395D01*
X187653395Y-96487395D01*
X187653395Y-96467395D01*
X187633395Y-96467395D01*
X187633395Y-96213395D01*
X187653395Y-96213395D01*
X187653395Y-95102145D01*
X187494645Y-94943395D01*
X187018395Y-94940323D01*
X186893913Y-94952583D01*
X186774215Y-94988893D01*
X186663901Y-95047858D01*
X186567210Y-95127210D01*
X186487858Y-95223901D01*
X186428893Y-95334215D01*
X186392583Y-95453913D01*
X186384315Y-95537860D01*
X186325515Y-95449860D01*
X186130930Y-95255275D01*
X185902122Y-95102390D01*
X185647885Y-94997081D01*
X185377987Y-94943395D01*
X185102803Y-94943395D01*
X184832905Y-94997081D01*
X184578668Y-95102390D01*
X184349860Y-95255275D01*
X184155275Y-95449860D01*
X184002390Y-95678668D01*
X183970395Y-95755910D01*
X183938400Y-95678668D01*
X183785515Y-95449860D01*
X183590930Y-95255275D01*
X183362122Y-95102390D01*
X183107885Y-94997081D01*
X182837987Y-94943395D01*
X182562803Y-94943395D01*
X182292905Y-94997081D01*
X182038668Y-95102390D01*
X181809860Y-95255275D01*
X181615275Y-95449860D01*
X181462390Y-95678668D01*
X181430395Y-95755910D01*
X181398400Y-95678668D01*
X181245515Y-95449860D01*
X181050930Y-95255275D01*
X180822122Y-95102390D01*
X180567885Y-94997081D01*
X180297987Y-94943395D01*
X180022803Y-94943395D01*
X179752905Y-94997081D01*
X179498668Y-95102390D01*
X179269860Y-95255275D01*
X179075275Y-95449860D01*
X178922390Y-95678668D01*
X178817081Y-95932905D01*
X178763395Y-96202803D01*
X172693000Y-96202803D01*
X172693000Y-88542645D01*
X206686395Y-88542645D01*
X206686395Y-88771145D01*
X206730973Y-88995255D01*
X206818416Y-89206361D01*
X206945364Y-89396352D01*
X207106938Y-89557926D01*
X207296929Y-89684874D01*
X207508035Y-89772317D01*
X207732145Y-89816895D01*
X207960645Y-89816895D01*
X208184755Y-89772317D01*
X208395861Y-89684874D01*
X208585852Y-89557926D01*
X208747426Y-89396352D01*
X208874374Y-89206361D01*
X208961817Y-88995255D01*
X209006395Y-88771145D01*
X209006395Y-88748473D01*
X212149974Y-85604895D01*
X213758407Y-85604895D01*
X213774438Y-85620926D01*
X213964429Y-85747874D01*
X214175535Y-85835317D01*
X214399645Y-85879895D01*
X214628145Y-85879895D01*
X214852255Y-85835317D01*
X215063361Y-85747874D01*
X215253352Y-85620926D01*
X215352992Y-85521286D01*
X239170914Y-85521286D01*
X239268238Y-85795647D01*
X239417217Y-86045750D01*
X239612126Y-86261983D01*
X239845475Y-86436036D01*
X240108296Y-86561220D01*
X240255505Y-86605871D01*
X240485395Y-86484550D01*
X240485395Y-85291395D01*
X239291581Y-85291395D01*
X239170914Y-85521286D01*
X215352992Y-85521286D01*
X215414926Y-85459352D01*
X215541874Y-85269361D01*
X215629317Y-85058255D01*
X215673895Y-84834145D01*
X215673895Y-84807504D01*
X239170914Y-84807504D01*
X239291581Y-85037395D01*
X240485395Y-85037395D01*
X240485395Y-83844240D01*
X240739395Y-83844240D01*
X240739395Y-85037395D01*
X240759395Y-85037395D01*
X240759395Y-85291395D01*
X240739395Y-85291395D01*
X240739395Y-86484550D01*
X240969285Y-86605871D01*
X241116494Y-86561220D01*
X241379315Y-86436036D01*
X241612664Y-86261983D01*
X241807573Y-86045750D01*
X241877200Y-85928861D01*
X241998920Y-86111027D01*
X242205763Y-86317870D01*
X242448984Y-86480385D01*
X242719237Y-86592327D01*
X243006135Y-86649395D01*
X243298655Y-86649395D01*
X243585553Y-86592327D01*
X243855806Y-86480385D01*
X244099027Y-86317870D01*
X244305870Y-86111027D01*
X244422395Y-85936635D01*
X244538920Y-86111027D01*
X244745763Y-86317870D01*
X244988984Y-86480385D01*
X245259237Y-86592327D01*
X245546135Y-86649395D01*
X245838655Y-86649395D01*
X246125553Y-86592327D01*
X246395806Y-86480385D01*
X246639027Y-86317870D01*
X246770882Y-86186015D01*
X246792893Y-86258575D01*
X246851858Y-86368889D01*
X246931210Y-86465580D01*
X247027901Y-86544932D01*
X247138215Y-86603897D01*
X247257913Y-86640207D01*
X247382395Y-86652467D01*
X249082395Y-86652467D01*
X249206877Y-86640207D01*
X249326575Y-86603897D01*
X249436889Y-86544932D01*
X249533580Y-86465580D01*
X249612932Y-86368889D01*
X249671897Y-86258575D01*
X249708207Y-86138877D01*
X249720467Y-86014395D01*
X249720467Y-84314395D01*
X249708207Y-84189913D01*
X249671897Y-84070215D01*
X249612932Y-83959901D01*
X249533580Y-83863210D01*
X249436889Y-83783858D01*
X249326575Y-83724893D01*
X249206877Y-83688583D01*
X249082395Y-83676323D01*
X247382395Y-83676323D01*
X247257913Y-83688583D01*
X247138215Y-83724893D01*
X247027901Y-83783858D01*
X246931210Y-83863210D01*
X246851858Y-83959901D01*
X246792893Y-84070215D01*
X246770882Y-84142775D01*
X246639027Y-84010920D01*
X246395806Y-83848405D01*
X246125553Y-83736463D01*
X245838655Y-83679395D01*
X245546135Y-83679395D01*
X245259237Y-83736463D01*
X244988984Y-83848405D01*
X244745763Y-84010920D01*
X244538920Y-84217763D01*
X244422395Y-84392155D01*
X244305870Y-84217763D01*
X244099027Y-84010920D01*
X243855806Y-83848405D01*
X243585553Y-83736463D01*
X243298655Y-83679395D01*
X243006135Y-83679395D01*
X242719237Y-83736463D01*
X242448984Y-83848405D01*
X242205763Y-84010920D01*
X241998920Y-84217763D01*
X241877200Y-84399929D01*
X241807573Y-84283040D01*
X241612664Y-84066807D01*
X241379315Y-83892754D01*
X241116494Y-83767570D01*
X240969285Y-83722919D01*
X240739395Y-83844240D01*
X240485395Y-83844240D01*
X240255505Y-83722919D01*
X240108296Y-83767570D01*
X239845475Y-83892754D01*
X239612126Y-84066807D01*
X239417217Y-84283040D01*
X239268238Y-84533143D01*
X239170914Y-84807504D01*
X215673895Y-84807504D01*
X215673895Y-84605645D01*
X215629317Y-84381535D01*
X215541874Y-84170429D01*
X215414926Y-83980438D01*
X215253352Y-83818864D01*
X215063361Y-83691916D01*
X214852255Y-83604473D01*
X214628145Y-83559895D01*
X214399645Y-83559895D01*
X214175535Y-83604473D01*
X213964429Y-83691916D01*
X213774438Y-83818864D01*
X213758407Y-83834895D01*
X211826864Y-83834895D01*
X211783395Y-83830614D01*
X211739926Y-83834895D01*
X211739918Y-83834895D01*
X211609905Y-83847700D01*
X211443082Y-83898306D01*
X211327845Y-83959901D01*
X211289336Y-83980484D01*
X211188348Y-84063363D01*
X211188346Y-84063365D01*
X211154578Y-84091078D01*
X211126865Y-84124846D01*
X207754817Y-87496895D01*
X207732145Y-87496895D01*
X207508035Y-87541473D01*
X207296929Y-87628916D01*
X207106938Y-87755864D01*
X206945364Y-87917438D01*
X206818416Y-88107429D01*
X206730973Y-88318535D01*
X206686395Y-88542645D01*
X172693000Y-88542645D01*
X172693000Y-81569493D01*
X174147395Y-81569493D01*
X174147395Y-82039297D01*
X174239049Y-82500074D01*
X174418835Y-82934116D01*
X174679845Y-83324744D01*
X175012046Y-83656945D01*
X175402674Y-83917955D01*
X175836716Y-84097741D01*
X176297493Y-84189395D01*
X176767297Y-84189395D01*
X177228074Y-84097741D01*
X177662116Y-83917955D01*
X178052744Y-83656945D01*
X178384945Y-83324744D01*
X178645955Y-82934116D01*
X178825741Y-82500074D01*
X178917395Y-82039297D01*
X178917395Y-81569493D01*
X178825741Y-81108716D01*
X178645955Y-80674674D01*
X178384945Y-80284046D01*
X178052744Y-79951845D01*
X177662116Y-79690835D01*
X177228074Y-79511049D01*
X176767297Y-79419395D01*
X176297493Y-79419395D01*
X175836716Y-79511049D01*
X175402674Y-79690835D01*
X175012046Y-79951845D01*
X174679845Y-80284046D01*
X174418835Y-80674674D01*
X174239049Y-81108716D01*
X174147395Y-81569493D01*
X172693000Y-81569493D01*
X172693000Y-62965000D01*
X197387210Y-62965000D01*
X197177728Y-63136918D01*
G36*
X272044896Y-64424329D02*
G01*
X272044896Y-68534957D01*
X272039737Y-68517950D01*
X272030922Y-68501459D01*
X271963083Y-68374541D01*
X271885776Y-68280342D01*
X271885773Y-68280339D01*
X271859925Y-68248843D01*
X271828430Y-68222996D01*
X270942792Y-67337360D01*
X270916936Y-67305854D01*
X270791237Y-67202696D01*
X270647829Y-67126042D01*
X270492221Y-67078839D01*
X270370948Y-67066895D01*
X270370945Y-67066895D01*
X270330395Y-67062901D01*
X270289845Y-67066895D01*
X262842328Y-67066895D01*
X262064828Y-66289395D01*
X262098655Y-66289395D01*
X262385553Y-66232327D01*
X262655806Y-66120385D01*
X262899027Y-65957870D01*
X263105870Y-65751027D01*
X263227590Y-65568861D01*
X263297217Y-65685750D01*
X263492126Y-65901983D01*
X263725475Y-66076036D01*
X263988296Y-66201220D01*
X264135505Y-66245871D01*
X264365395Y-66124550D01*
X264365395Y-64931395D01*
X264345395Y-64931395D01*
X264345395Y-64677395D01*
X264365395Y-64677395D01*
X264365395Y-64657395D01*
X264619395Y-64657395D01*
X264619395Y-64677395D01*
X264639395Y-64677395D01*
X264639395Y-64931395D01*
X264619395Y-64931395D01*
X264619395Y-66124550D01*
X264849285Y-66245871D01*
X264996494Y-66201220D01*
X265259315Y-66076036D01*
X265492664Y-65901983D01*
X265687573Y-65685750D01*
X265757200Y-65568861D01*
X265878920Y-65751027D01*
X266085763Y-65957870D01*
X266328984Y-66120385D01*
X266599237Y-66232327D01*
X266886135Y-66289395D01*
X267178655Y-66289395D01*
X267465553Y-66232327D01*
X267735806Y-66120385D01*
X267979027Y-65957870D01*
X268110882Y-65826015D01*
X268132893Y-65898575D01*
X268191858Y-66008889D01*
X268271210Y-66105580D01*
X268367901Y-66184932D01*
X268478215Y-66243897D01*
X268597913Y-66280207D01*
X268722395Y-66292467D01*
X270422395Y-66292467D01*
X270546877Y-66280207D01*
X270666575Y-66243897D01*
X270776889Y-66184932D01*
X270873580Y-66105580D01*
X270952932Y-66008889D01*
X271011897Y-65898575D01*
X271048207Y-65778877D01*
X271060467Y-65654395D01*
X271060467Y-63954395D01*
X271054311Y-63891895D01*
X271512463Y-63891895D01*
X272044896Y-64424329D01*
G37*
X272044896Y-64424329D02*
X272044896Y-68534957D01*
X272039737Y-68517950D01*
X272030922Y-68501459D01*
X271963083Y-68374541D01*
X271885776Y-68280342D01*
X271885773Y-68280339D01*
X271859925Y-68248843D01*
X271828430Y-68222996D01*
X270942792Y-67337360D01*
X270916936Y-67305854D01*
X270791237Y-67202696D01*
X270647829Y-67126042D01*
X270492221Y-67078839D01*
X270370948Y-67066895D01*
X270370945Y-67066895D01*
X270330395Y-67062901D01*
X270289845Y-67066895D01*
X262842328Y-67066895D01*
X262064828Y-66289395D01*
X262098655Y-66289395D01*
X262385553Y-66232327D01*
X262655806Y-66120385D01*
X262899027Y-65957870D01*
X263105870Y-65751027D01*
X263227590Y-65568861D01*
X263297217Y-65685750D01*
X263492126Y-65901983D01*
X263725475Y-66076036D01*
X263988296Y-66201220D01*
X264135505Y-66245871D01*
X264365395Y-66124550D01*
X264365395Y-64931395D01*
X264345395Y-64931395D01*
X264345395Y-64677395D01*
X264365395Y-64677395D01*
X264365395Y-64657395D01*
X264619395Y-64657395D01*
X264619395Y-64677395D01*
X264639395Y-64677395D01*
X264639395Y-64931395D01*
X264619395Y-64931395D01*
X264619395Y-66124550D01*
X264849285Y-66245871D01*
X264996494Y-66201220D01*
X265259315Y-66076036D01*
X265492664Y-65901983D01*
X265687573Y-65685750D01*
X265757200Y-65568861D01*
X265878920Y-65751027D01*
X266085763Y-65957870D01*
X266328984Y-66120385D01*
X266599237Y-66232327D01*
X266886135Y-66289395D01*
X267178655Y-66289395D01*
X267465553Y-66232327D01*
X267735806Y-66120385D01*
X267979027Y-65957870D01*
X268110882Y-65826015D01*
X268132893Y-65898575D01*
X268191858Y-66008889D01*
X268271210Y-66105580D01*
X268367901Y-66184932D01*
X268478215Y-66243897D01*
X268597913Y-66280207D01*
X268722395Y-66292467D01*
X270422395Y-66292467D01*
X270546877Y-66280207D01*
X270666575Y-66243897D01*
X270776889Y-66184932D01*
X270873580Y-66105580D01*
X270952932Y-66008889D01*
X271011897Y-65898575D01*
X271048207Y-65778877D01*
X271060467Y-65654395D01*
X271060467Y-63954395D01*
X271054311Y-63891895D01*
X271512463Y-63891895D01*
X272044896Y-64424329D01*
%TD*%
M02*
