%TF.GenerationSoftware,KiCad,Pcbnew,(5.1.6)-1*%
%TF.CreationDate,2021-03-05T09:23:02-07:00*%
%TF.ProjectId,Main Control Board,4d61696e-2043-46f6-9e74-726f6c20426f,rev?*%
%TF.SameCoordinates,Original*%
%TF.FileFunction,Soldermask,Top*%
%TF.FilePolarity,Negative*%
%FSLAX46Y46*%
G04 Gerber Fmt 4.6, Leading zero omitted, Abs format (unit mm)*
G04 Created by KiCad (PCBNEW (5.1.6)-1) date 2021-03-05 09:23:02*
%MOMM*%
%LPD*%
G01*
G04 APERTURE LIST*
%ADD10C,3.600000*%
%ADD11R,3.400000X2.510000*%
%ADD12C,1.624000*%
%ADD13R,1.624000X1.624000*%
%ADD14C,1.700000*%
%ADD15R,1.700000X1.700000*%
%ADD16R,0.750000X1.160000*%
%ADD17O,1.500000X0.549999*%
%ADD18O,1.800000X1.800000*%
%ADD19R,1.800000X1.800000*%
G04 APERTURE END LIST*
D10*
%TO.C,REF\u002A\u002A*%
X210032395Y-71804395D03*
%TD*%
%TO.C,REF\u002A\u002A*%
X263532395Y-121804395D03*
%TD*%
%TO.C,REF\u002A\u002A*%
X197532395Y-121804395D03*
%TD*%
%TO.C,REF\u002A\u002A*%
X176532395Y-81804395D03*
%TD*%
D11*
%TO.C,U3*%
X182245000Y-72904395D03*
G36*
G01*
X180515000Y-71454395D02*
X180165000Y-71454395D01*
G75*
G02*
X179990000Y-71279395I0J175000D01*
G01*
X179990000Y-69579395D01*
G75*
G02*
X180165000Y-69404395I175000J0D01*
G01*
X180515000Y-69404395D01*
G75*
G02*
X180690000Y-69579395I0J-175000D01*
G01*
X180690000Y-71279395D01*
G75*
G02*
X180515000Y-71454395I-175000J0D01*
G01*
G37*
G36*
G01*
X181785000Y-71454395D02*
X181435000Y-71454395D01*
G75*
G02*
X181260000Y-71279395I0J175000D01*
G01*
X181260000Y-69579395D01*
G75*
G02*
X181435000Y-69404395I175000J0D01*
G01*
X181785000Y-69404395D01*
G75*
G02*
X181960000Y-69579395I0J-175000D01*
G01*
X181960000Y-71279395D01*
G75*
G02*
X181785000Y-71454395I-175000J0D01*
G01*
G37*
G36*
G01*
X183055000Y-71454395D02*
X182705000Y-71454395D01*
G75*
G02*
X182530000Y-71279395I0J175000D01*
G01*
X182530000Y-69579395D01*
G75*
G02*
X182705000Y-69404395I175000J0D01*
G01*
X183055000Y-69404395D01*
G75*
G02*
X183230000Y-69579395I0J-175000D01*
G01*
X183230000Y-71279395D01*
G75*
G02*
X183055000Y-71454395I-175000J0D01*
G01*
G37*
G36*
G01*
X184325000Y-71454395D02*
X183975000Y-71454395D01*
G75*
G02*
X183800000Y-71279395I0J175000D01*
G01*
X183800000Y-69579395D01*
G75*
G02*
X183975000Y-69404395I175000J0D01*
G01*
X184325000Y-69404395D01*
G75*
G02*
X184500000Y-69579395I0J-175000D01*
G01*
X184500000Y-71279395D01*
G75*
G02*
X184325000Y-71454395I-175000J0D01*
G01*
G37*
G36*
G01*
X184325000Y-76404395D02*
X183975000Y-76404395D01*
G75*
G02*
X183800000Y-76229395I0J175000D01*
G01*
X183800000Y-74529395D01*
G75*
G02*
X183975000Y-74354395I175000J0D01*
G01*
X184325000Y-74354395D01*
G75*
G02*
X184500000Y-74529395I0J-175000D01*
G01*
X184500000Y-76229395D01*
G75*
G02*
X184325000Y-76404395I-175000J0D01*
G01*
G37*
G36*
G01*
X183055000Y-76404395D02*
X182705000Y-76404395D01*
G75*
G02*
X182530000Y-76229395I0J175000D01*
G01*
X182530000Y-74529395D01*
G75*
G02*
X182705000Y-74354395I175000J0D01*
G01*
X183055000Y-74354395D01*
G75*
G02*
X183230000Y-74529395I0J-175000D01*
G01*
X183230000Y-76229395D01*
G75*
G02*
X183055000Y-76404395I-175000J0D01*
G01*
G37*
G36*
G01*
X181785000Y-76404395D02*
X181435000Y-76404395D01*
G75*
G02*
X181260000Y-76229395I0J175000D01*
G01*
X181260000Y-74529395D01*
G75*
G02*
X181435000Y-74354395I175000J0D01*
G01*
X181785000Y-74354395D01*
G75*
G02*
X181960000Y-74529395I0J-175000D01*
G01*
X181960000Y-76229395D01*
G75*
G02*
X181785000Y-76404395I-175000J0D01*
G01*
G37*
G36*
G01*
X180515000Y-76404395D02*
X180165000Y-76404395D01*
G75*
G02*
X179990000Y-76229395I0J175000D01*
G01*
X179990000Y-74529395D01*
G75*
G02*
X180165000Y-74354395I175000J0D01*
G01*
X180515000Y-74354395D01*
G75*
G02*
X180690000Y-74529395I0J-175000D01*
G01*
X180690000Y-76229395D01*
G75*
G02*
X180515000Y-76404395I-175000J0D01*
G01*
G37*
%TD*%
D12*
%TO.C,U5*%
X180160395Y-98880395D03*
X180160395Y-96340395D03*
X182700395Y-98880395D03*
X182700395Y-96340395D03*
X185240395Y-98880395D03*
X185240395Y-96340395D03*
X187780395Y-98880395D03*
D13*
X187780395Y-96340395D03*
%TD*%
D14*
%TO.C,U1*%
X253312395Y-85164395D03*
X268552395Y-85164395D03*
X253312395Y-87704395D03*
X253312395Y-90244395D03*
X253312395Y-92784395D03*
X253312395Y-95324395D03*
X253312395Y-97864395D03*
X253312395Y-100404395D03*
X253312395Y-102944395D03*
X253312395Y-105484395D03*
X253312395Y-108024395D03*
X253312395Y-110564395D03*
X253312395Y-113104395D03*
X253312395Y-115644395D03*
X253312395Y-118184395D03*
X268552395Y-87704395D03*
X268552395Y-90244395D03*
X268552395Y-92784395D03*
X268552395Y-95324395D03*
X268552395Y-97864395D03*
X268552395Y-100404395D03*
X268552395Y-102944395D03*
X268552395Y-105484395D03*
X268552395Y-108024395D03*
X268552395Y-110564395D03*
X268552395Y-113104395D03*
X268552395Y-115644395D03*
D15*
X268552395Y-118184395D03*
%TD*%
%TO.C,C5*%
G36*
G01*
X181556395Y-88442395D02*
X181556395Y-90522395D01*
G75*
G02*
X181296395Y-90782395I-260000J0D01*
G01*
X178216395Y-90782395D01*
G75*
G02*
X177956395Y-90522395I0J260000D01*
G01*
X177956395Y-88442395D01*
G75*
G02*
X178216395Y-88182395I260000J0D01*
G01*
X181296395Y-88182395D01*
G75*
G02*
X181556395Y-88442395I0J-260000D01*
G01*
G37*
G36*
G01*
X188056395Y-88442395D02*
X188056395Y-90522395D01*
G75*
G02*
X187796395Y-90782395I-260000J0D01*
G01*
X184716395Y-90782395D01*
G75*
G02*
X184456395Y-90522395I0J260000D01*
G01*
X184456395Y-88442395D01*
G75*
G02*
X184716395Y-88182395I260000J0D01*
G01*
X187796395Y-88182395D01*
G75*
G02*
X188056395Y-88442395I0J-260000D01*
G01*
G37*
%TD*%
D16*
%TO.C,U6*%
X228367095Y-78664895D03*
X226467095Y-78664895D03*
X226467095Y-76464895D03*
X227417095Y-76464895D03*
X228367095Y-76464895D03*
%TD*%
D17*
%TO.C,U4*%
X258080394Y-101562396D03*
X258080394Y-100912395D03*
X258080394Y-100262396D03*
X258080394Y-99612395D03*
X258080394Y-98962396D03*
X258080394Y-98312395D03*
X258080394Y-97662396D03*
X258080394Y-97012395D03*
X258080394Y-96362396D03*
X258080394Y-95712395D03*
X263980395Y-95712395D03*
X263980395Y-96362396D03*
X263980395Y-97012395D03*
X263980395Y-97662396D03*
X263980395Y-98312395D03*
X263980395Y-98962396D03*
X263980395Y-99612395D03*
X263980395Y-100262396D03*
X263980395Y-100912395D03*
X263980395Y-101562396D03*
%TD*%
D11*
%TO.C,U2*%
X258011395Y-75955395D03*
G36*
G01*
X256281395Y-74505395D02*
X255931395Y-74505395D01*
G75*
G02*
X255756395Y-74330395I0J175000D01*
G01*
X255756395Y-72630395D01*
G75*
G02*
X255931395Y-72455395I175000J0D01*
G01*
X256281395Y-72455395D01*
G75*
G02*
X256456395Y-72630395I0J-175000D01*
G01*
X256456395Y-74330395D01*
G75*
G02*
X256281395Y-74505395I-175000J0D01*
G01*
G37*
G36*
G01*
X257551395Y-74505395D02*
X257201395Y-74505395D01*
G75*
G02*
X257026395Y-74330395I0J175000D01*
G01*
X257026395Y-72630395D01*
G75*
G02*
X257201395Y-72455395I175000J0D01*
G01*
X257551395Y-72455395D01*
G75*
G02*
X257726395Y-72630395I0J-175000D01*
G01*
X257726395Y-74330395D01*
G75*
G02*
X257551395Y-74505395I-175000J0D01*
G01*
G37*
G36*
G01*
X258821395Y-74505395D02*
X258471395Y-74505395D01*
G75*
G02*
X258296395Y-74330395I0J175000D01*
G01*
X258296395Y-72630395D01*
G75*
G02*
X258471395Y-72455395I175000J0D01*
G01*
X258821395Y-72455395D01*
G75*
G02*
X258996395Y-72630395I0J-175000D01*
G01*
X258996395Y-74330395D01*
G75*
G02*
X258821395Y-74505395I-175000J0D01*
G01*
G37*
G36*
G01*
X260091395Y-74505395D02*
X259741395Y-74505395D01*
G75*
G02*
X259566395Y-74330395I0J175000D01*
G01*
X259566395Y-72630395D01*
G75*
G02*
X259741395Y-72455395I175000J0D01*
G01*
X260091395Y-72455395D01*
G75*
G02*
X260266395Y-72630395I0J-175000D01*
G01*
X260266395Y-74330395D01*
G75*
G02*
X260091395Y-74505395I-175000J0D01*
G01*
G37*
G36*
G01*
X260091395Y-79455395D02*
X259741395Y-79455395D01*
G75*
G02*
X259566395Y-79280395I0J175000D01*
G01*
X259566395Y-77580395D01*
G75*
G02*
X259741395Y-77405395I175000J0D01*
G01*
X260091395Y-77405395D01*
G75*
G02*
X260266395Y-77580395I0J-175000D01*
G01*
X260266395Y-79280395D01*
G75*
G02*
X260091395Y-79455395I-175000J0D01*
G01*
G37*
G36*
G01*
X258821395Y-79455395D02*
X258471395Y-79455395D01*
G75*
G02*
X258296395Y-79280395I0J175000D01*
G01*
X258296395Y-77580395D01*
G75*
G02*
X258471395Y-77405395I175000J0D01*
G01*
X258821395Y-77405395D01*
G75*
G02*
X258996395Y-77580395I0J-175000D01*
G01*
X258996395Y-79280395D01*
G75*
G02*
X258821395Y-79455395I-175000J0D01*
G01*
G37*
G36*
G01*
X257551395Y-79455395D02*
X257201395Y-79455395D01*
G75*
G02*
X257026395Y-79280395I0J175000D01*
G01*
X257026395Y-77580395D01*
G75*
G02*
X257201395Y-77405395I175000J0D01*
G01*
X257551395Y-77405395D01*
G75*
G02*
X257726395Y-77580395I0J-175000D01*
G01*
X257726395Y-79280395D01*
G75*
G02*
X257551395Y-79455395I-175000J0D01*
G01*
G37*
G36*
G01*
X256281395Y-79455395D02*
X255931395Y-79455395D01*
G75*
G02*
X255756395Y-79280395I0J175000D01*
G01*
X255756395Y-77580395D01*
G75*
G02*
X255931395Y-77405395I175000J0D01*
G01*
X256281395Y-77405395D01*
G75*
G02*
X256456395Y-77580395I0J-175000D01*
G01*
X256456395Y-79280395D01*
G75*
G02*
X256281395Y-79455395I-175000J0D01*
G01*
G37*
%TD*%
%TO.C,R2*%
G36*
G01*
X229436895Y-81712939D02*
X229436895Y-83027851D01*
G75*
G02*
X229169351Y-83295395I-267544J0D01*
G01*
X228179439Y-83295395D01*
G75*
G02*
X227911895Y-83027851I0J267544D01*
G01*
X227911895Y-81712939D01*
G75*
G02*
X228179439Y-81445395I267544J0D01*
G01*
X229169351Y-81445395D01*
G75*
G02*
X229436895Y-81712939I0J-267544D01*
G01*
G37*
G36*
G01*
X232411895Y-81712939D02*
X232411895Y-83027851D01*
G75*
G02*
X232144351Y-83295395I-267544J0D01*
G01*
X231154439Y-83295395D01*
G75*
G02*
X230886895Y-83027851I0J267544D01*
G01*
X230886895Y-81712939D01*
G75*
G02*
X231154439Y-81445395I267544J0D01*
G01*
X232144351Y-81445395D01*
G75*
G02*
X232411895Y-81712939I0J-267544D01*
G01*
G37*
%TD*%
%TO.C,R1*%
G36*
G01*
X225625895Y-74137851D02*
X225625895Y-72822939D01*
G75*
G02*
X225893439Y-72555395I267544J0D01*
G01*
X226883351Y-72555395D01*
G75*
G02*
X227150895Y-72822939I0J-267544D01*
G01*
X227150895Y-74137851D01*
G75*
G02*
X226883351Y-74405395I-267544J0D01*
G01*
X225893439Y-74405395D01*
G75*
G02*
X225625895Y-74137851I0J267544D01*
G01*
G37*
G36*
G01*
X222650895Y-74137851D02*
X222650895Y-72822939D01*
G75*
G02*
X222918439Y-72555395I267544J0D01*
G01*
X223908351Y-72555395D01*
G75*
G02*
X224175895Y-72822939I0J-267544D01*
G01*
X224175895Y-74137851D01*
G75*
G02*
X223908351Y-74405395I-267544J0D01*
G01*
X222918439Y-74405395D01*
G75*
G02*
X222650895Y-74137851I0J267544D01*
G01*
G37*
%TD*%
D18*
%TO.C,J5*%
X240612395Y-85164395D03*
X243152395Y-85164395D03*
X245692395Y-85164395D03*
D19*
X248232395Y-85164395D03*
%TD*%
D18*
%TO.C,J3*%
X189732395Y-64804395D03*
X187192395Y-64804395D03*
X184652395Y-64804395D03*
X182112395Y-64804395D03*
X179572395Y-64804395D03*
D19*
X177032395Y-64804395D03*
%TD*%
D18*
%TO.C,J2*%
X212672395Y-113104395D03*
X215212395Y-113104395D03*
X217752395Y-113104395D03*
X220292395Y-113104395D03*
X222832395Y-113104395D03*
X225372395Y-113104395D03*
X227912395Y-113104395D03*
D19*
X230452395Y-113104395D03*
%TD*%
D18*
%TO.C,J1*%
X256872395Y-64804395D03*
X259412395Y-64804395D03*
X261952395Y-64804395D03*
X264492395Y-64804395D03*
X267032395Y-64804395D03*
D19*
X269572395Y-64804395D03*
%TD*%
%TO.C,D2*%
G36*
G01*
X225371895Y-83027851D02*
X225371895Y-81712939D01*
G75*
G02*
X225639439Y-81445395I267544J0D01*
G01*
X226629351Y-81445395D01*
G75*
G02*
X226896895Y-81712939I0J-267544D01*
G01*
X226896895Y-83027851D01*
G75*
G02*
X226629351Y-83295395I-267544J0D01*
G01*
X225639439Y-83295395D01*
G75*
G02*
X225371895Y-83027851I0J267544D01*
G01*
G37*
G36*
G01*
X222396895Y-83027851D02*
X222396895Y-81712939D01*
G75*
G02*
X222664439Y-81445395I267544J0D01*
G01*
X223654351Y-81445395D01*
G75*
G02*
X223921895Y-81712939I0J-267544D01*
G01*
X223921895Y-83027851D01*
G75*
G02*
X223654351Y-83295395I-267544J0D01*
G01*
X222664439Y-83295395D01*
G75*
G02*
X222396895Y-83027851I0J267544D01*
G01*
G37*
%TD*%
%TO.C,D1*%
G36*
G01*
X229690895Y-72822939D02*
X229690895Y-74137851D01*
G75*
G02*
X229423351Y-74405395I-267544J0D01*
G01*
X228433439Y-74405395D01*
G75*
G02*
X228165895Y-74137851I0J267544D01*
G01*
X228165895Y-72822939D01*
G75*
G02*
X228433439Y-72555395I267544J0D01*
G01*
X229423351Y-72555395D01*
G75*
G02*
X229690895Y-72822939I0J-267544D01*
G01*
G37*
G36*
G01*
X232665895Y-72822939D02*
X232665895Y-74137851D01*
G75*
G02*
X232398351Y-74405395I-267544J0D01*
G01*
X231408439Y-74405395D01*
G75*
G02*
X231140895Y-74137851I0J267544D01*
G01*
X231140895Y-72822939D01*
G75*
G02*
X231408439Y-72555395I267544J0D01*
G01*
X232398351Y-72555395D01*
G75*
G02*
X232665895Y-72822939I0J-267544D01*
G01*
G37*
%TD*%
%TO.C,C7*%
G36*
G01*
X232379851Y-77036895D02*
X231064939Y-77036895D01*
G75*
G02*
X230797395Y-76769351I0J267544D01*
G01*
X230797395Y-75779439D01*
G75*
G02*
X231064939Y-75511895I267544J0D01*
G01*
X232379851Y-75511895D01*
G75*
G02*
X232647395Y-75779439I0J-267544D01*
G01*
X232647395Y-76769351D01*
G75*
G02*
X232379851Y-77036895I-267544J0D01*
G01*
G37*
G36*
G01*
X232379851Y-80011895D02*
X231064939Y-80011895D01*
G75*
G02*
X230797395Y-79744351I0J267544D01*
G01*
X230797395Y-78754439D01*
G75*
G02*
X231064939Y-78486895I267544J0D01*
G01*
X232379851Y-78486895D01*
G75*
G02*
X232647395Y-78754439I0J-267544D01*
G01*
X232647395Y-79744351D01*
G75*
G02*
X232379851Y-80011895I-267544J0D01*
G01*
G37*
%TD*%
%TO.C,C6*%
G36*
G01*
X222936939Y-78486895D02*
X224251851Y-78486895D01*
G75*
G02*
X224519395Y-78754439I0J-267544D01*
G01*
X224519395Y-79744351D01*
G75*
G02*
X224251851Y-80011895I-267544J0D01*
G01*
X222936939Y-80011895D01*
G75*
G02*
X222669395Y-79744351I0J267544D01*
G01*
X222669395Y-78754439D01*
G75*
G02*
X222936939Y-78486895I267544J0D01*
G01*
G37*
G36*
G01*
X222936939Y-75511895D02*
X224251851Y-75511895D01*
G75*
G02*
X224519395Y-75779439I0J-267544D01*
G01*
X224519395Y-76769351D01*
G75*
G02*
X224251851Y-77036895I-267544J0D01*
G01*
X222936939Y-77036895D01*
G75*
G02*
X222669395Y-76769351I0J267544D01*
G01*
X222669395Y-75779439D01*
G75*
G02*
X222936939Y-75511895I267544J0D01*
G01*
G37*
%TD*%
%TO.C,C4*%
G36*
G01*
X192836395Y-76252395D02*
X194916395Y-76252395D01*
G75*
G02*
X195176395Y-76512395I0J-260000D01*
G01*
X195176395Y-79592395D01*
G75*
G02*
X194916395Y-79852395I-260000J0D01*
G01*
X192836395Y-79852395D01*
G75*
G02*
X192576395Y-79592395I0J260000D01*
G01*
X192576395Y-76512395D01*
G75*
G02*
X192836395Y-76252395I260000J0D01*
G01*
G37*
G36*
G01*
X192836395Y-69752395D02*
X194916395Y-69752395D01*
G75*
G02*
X195176395Y-70012395I0J-260000D01*
G01*
X195176395Y-73092395D01*
G75*
G02*
X194916395Y-73352395I-260000J0D01*
G01*
X192836395Y-73352395D01*
G75*
G02*
X192576395Y-73092395I0J260000D01*
G01*
X192576395Y-70012395D01*
G75*
G02*
X192836395Y-69752395I260000J0D01*
G01*
G37*
%TD*%
%TO.C,C3*%
G36*
G01*
X186106939Y-73660895D02*
X187421851Y-73660895D01*
G75*
G02*
X187689395Y-73928439I0J-267544D01*
G01*
X187689395Y-74918351D01*
G75*
G02*
X187421851Y-75185895I-267544J0D01*
G01*
X186106939Y-75185895D01*
G75*
G02*
X185839395Y-74918351I0J267544D01*
G01*
X185839395Y-73928439D01*
G75*
G02*
X186106939Y-73660895I267544J0D01*
G01*
G37*
G36*
G01*
X186106939Y-70685895D02*
X187421851Y-70685895D01*
G75*
G02*
X187689395Y-70953439I0J-267544D01*
G01*
X187689395Y-71943351D01*
G75*
G02*
X187421851Y-72210895I-267544J0D01*
G01*
X186106939Y-72210895D01*
G75*
G02*
X185839395Y-71943351I0J267544D01*
G01*
X185839395Y-70953439D01*
G75*
G02*
X186106939Y-70685895I267544J0D01*
G01*
G37*
%TD*%
%TO.C,C2*%
G36*
G01*
X267512395Y-77672395D02*
X269592395Y-77672395D01*
G75*
G02*
X269852395Y-77932395I0J-260000D01*
G01*
X269852395Y-81012395D01*
G75*
G02*
X269592395Y-81272395I-260000J0D01*
G01*
X267512395Y-81272395D01*
G75*
G02*
X267252395Y-81012395I0J260000D01*
G01*
X267252395Y-77932395D01*
G75*
G02*
X267512395Y-77672395I260000J0D01*
G01*
G37*
G36*
G01*
X267512395Y-71172395D02*
X269592395Y-71172395D01*
G75*
G02*
X269852395Y-71432395I0J-260000D01*
G01*
X269852395Y-74512395D01*
G75*
G02*
X269592395Y-74772395I-260000J0D01*
G01*
X267512395Y-74772395D01*
G75*
G02*
X267252395Y-74512395I0J260000D01*
G01*
X267252395Y-71432395D01*
G75*
G02*
X267512395Y-71172395I260000J0D01*
G01*
G37*
%TD*%
%TO.C,C1*%
G36*
G01*
X261798939Y-76273895D02*
X263113851Y-76273895D01*
G75*
G02*
X263381395Y-76541439I0J-267544D01*
G01*
X263381395Y-77531351D01*
G75*
G02*
X263113851Y-77798895I-267544J0D01*
G01*
X261798939Y-77798895D01*
G75*
G02*
X261531395Y-77531351I0J267544D01*
G01*
X261531395Y-76541439D01*
G75*
G02*
X261798939Y-76273895I267544J0D01*
G01*
G37*
G36*
G01*
X261798939Y-73298895D02*
X263113851Y-73298895D01*
G75*
G02*
X263381395Y-73566439I0J-267544D01*
G01*
X263381395Y-74556351D01*
G75*
G02*
X263113851Y-74823895I-267544J0D01*
G01*
X261798939Y-74823895D01*
G75*
G02*
X261531395Y-74556351I0J267544D01*
G01*
X261531395Y-73566439D01*
G75*
G02*
X261798939Y-73298895I267544J0D01*
G01*
G37*
%TD*%
M02*
