M48
; DRILL file {KiCad (5.1.6)-1} date 03/05/21 09:23:04
; FORMAT={-:-/ absolute / inch / decimal}
; #@! TF.CreationDate,2021-03-05T09:23:04-07:00
; #@! TF.GenerationSoftware,Kicad,Pcbnew,(5.1.6)-1
; #@! TF.FileFunction,Plated,1,2,PTH
FMAT,2
INCH
T1C0.0205
T2C0.0300
T3C0.0394
T4C0.0433
%
G90
G05
T1
X7.0729Y-3.6329
X7.0828Y-2.8703
X7.1982Y-2.6915
X7.2706Y-2.8703
X7.4254Y-2.7129
X7.4529Y-3.5629
X7.4604Y-2.9904
X7.4729Y-2.7129
X8.1829Y-3.4904
X8.3129Y-3.5429
X8.3729Y-3.8529
X8.3929Y-3.5329
X8.4454Y-3.3354
X8.4629Y-3.9029
X8.7229Y-2.8429
X9.1229Y-2.8229
X9.2929Y-3.5829
X9.3529Y-3.5429
X9.9154Y-3.1529
X10.0655Y-2.9904
X10.1177Y-4.0506
X10.1356Y-3.1819
X10.1529Y-3.7129
X10.1754Y-3.6454
X10.2187Y-3.1687
X10.2329Y-3.9529
X10.2429Y-4.0129
X10.2505Y-2.9904
X10.3029Y-2.7879
X10.3404Y-2.8254
X10.348Y-3.2029
X10.3915Y-3.3169
X10.623Y-3.2491
T2
X7.0929Y-3.7929
X7.0929Y-3.8929
X7.1929Y-3.7929
X7.1929Y-3.8929
X7.2929Y-3.7929
X7.2929Y-3.8929
X7.3929Y-3.7929
X7.3929Y-3.8929
T3
X8.3729Y-4.4529
X8.4729Y-4.4529
X8.5729Y-4.4529
X8.6729Y-4.4529
X8.7729Y-4.4529
X8.8729Y-4.4529
X8.9729Y-4.4529
X9.0729Y-4.4529
X10.1131Y-2.5514
X10.2131Y-2.5514
X10.3131Y-2.5514
X10.4131Y-2.5514
X10.5131Y-2.5514
X10.6131Y-2.5514
X6.9698Y-2.5514
X7.0698Y-2.5514
X7.1698Y-2.5514
X7.2698Y-2.5514
X7.3698Y-2.5514
X7.4698Y-2.5514
X9.4729Y-3.3529
X9.5729Y-3.3529
X9.6729Y-3.3529
X9.7729Y-3.3529
T4
X9.9729Y-3.3529
X9.9729Y-3.4529
X9.9729Y-3.5529
X9.9729Y-3.6529
X9.9729Y-3.7529
X9.9729Y-3.8529
X9.9729Y-3.9529
X9.9729Y-4.0529
X9.9729Y-4.1529
X9.9729Y-4.2529
X9.9729Y-4.3529
X9.9729Y-4.4529
X9.9729Y-4.5529
X9.9729Y-4.6529
X10.5729Y-3.3529
X10.5729Y-3.4529
X10.5729Y-3.5529
X10.5729Y-3.6529
X10.5729Y-3.7529
X10.5729Y-3.8529
X10.5729Y-3.9529
X10.5729Y-4.0529
X10.5729Y-4.1529
X10.5729Y-4.2529
X10.5729Y-4.3529
X10.5729Y-4.4529
X10.5729Y-4.5529
X10.5729Y-4.6529
T0
M30
