%TF.GenerationSoftware,KiCad,Pcbnew,(5.1.6)-1*%
%TF.CreationDate,2021-03-05T09:23:02-07:00*%
%TF.ProjectId,Main Control Board,4d61696e-2043-46f6-9e74-726f6c20426f,rev?*%
%TF.SameCoordinates,Original*%
%TF.FileFunction,Soldermask,Bot*%
%TF.FilePolarity,Negative*%
%FSLAX46Y46*%
G04 Gerber Fmt 4.6, Leading zero omitted, Abs format (unit mm)*
G04 Created by KiCad (PCBNEW (5.1.6)-1) date 2021-03-05 09:23:02*
%MOMM*%
%LPD*%
G01*
G04 APERTURE LIST*
%ADD10C,3.600000*%
%ADD11C,1.624000*%
%ADD12R,1.624000X1.624000*%
%ADD13C,1.700000*%
%ADD14R,1.700000X1.700000*%
%ADD15C,4.100000*%
%ADD16O,1.800000X1.800000*%
%ADD17R,1.800000X1.800000*%
G04 APERTURE END LIST*
D10*
%TO.C,REF\u002A\u002A*%
X210032395Y-71804395D03*
%TD*%
%TO.C,REF\u002A\u002A*%
X263532395Y-121804395D03*
%TD*%
%TO.C,REF\u002A\u002A*%
X197532395Y-121804395D03*
%TD*%
%TO.C,REF\u002A\u002A*%
X176532395Y-81804395D03*
%TD*%
D11*
%TO.C,U5*%
X180160395Y-98880395D03*
X180160395Y-96340395D03*
X182700395Y-98880395D03*
X182700395Y-96340395D03*
X185240395Y-98880395D03*
X185240395Y-96340395D03*
X187780395Y-98880395D03*
D12*
X187780395Y-96340395D03*
%TD*%
D13*
%TO.C,U1*%
X253312395Y-85164395D03*
X268552395Y-85164395D03*
X253312395Y-87704395D03*
X253312395Y-90244395D03*
X253312395Y-92784395D03*
X253312395Y-95324395D03*
X253312395Y-97864395D03*
X253312395Y-100404395D03*
X253312395Y-102944395D03*
X253312395Y-105484395D03*
X253312395Y-108024395D03*
X253312395Y-110564395D03*
X253312395Y-113104395D03*
X253312395Y-115644395D03*
X253312395Y-118184395D03*
X268552395Y-87704395D03*
X268552395Y-90244395D03*
X268552395Y-92784395D03*
X268552395Y-95324395D03*
X268552395Y-97864395D03*
X268552395Y-100404395D03*
X268552395Y-102944395D03*
X268552395Y-105484395D03*
X268552395Y-108024395D03*
X268552395Y-110564395D03*
X268552395Y-113104395D03*
X268552395Y-115644395D03*
D14*
X268552395Y-118184395D03*
%TD*%
D15*
%TO.C,J6*%
X245745000Y-69162395D03*
G36*
G01*
X236495000Y-70958195D02*
X236495000Y-67366595D01*
G75*
G02*
X236749200Y-67112395I254200J0D01*
G01*
X240340800Y-67112395D01*
G75*
G02*
X240595000Y-67366595I0J-254200D01*
G01*
X240595000Y-70958195D01*
G75*
G02*
X240340800Y-71212395I-254200J0D01*
G01*
X236749200Y-71212395D01*
G75*
G02*
X236495000Y-70958195I0J254200D01*
G01*
G37*
%TD*%
D16*
%TO.C,J5*%
X240612395Y-85164395D03*
X243152395Y-85164395D03*
X245692395Y-85164395D03*
D17*
X248232395Y-85164395D03*
%TD*%
D15*
%TO.C,J4*%
X230593000Y-69088000D03*
G36*
G01*
X221343000Y-70883800D02*
X221343000Y-67292200D01*
G75*
G02*
X221597200Y-67038000I254200J0D01*
G01*
X225188800Y-67038000D01*
G75*
G02*
X225443000Y-67292200I0J-254200D01*
G01*
X225443000Y-70883800D01*
G75*
G02*
X225188800Y-71138000I-254200J0D01*
G01*
X221597200Y-71138000D01*
G75*
G02*
X221343000Y-70883800I0J254200D01*
G01*
G37*
%TD*%
D16*
%TO.C,J3*%
X189732395Y-64804395D03*
X187192395Y-64804395D03*
X184652395Y-64804395D03*
X182112395Y-64804395D03*
X179572395Y-64804395D03*
D17*
X177032395Y-64804395D03*
%TD*%
D16*
%TO.C,J2*%
X212672395Y-113104395D03*
X215212395Y-113104395D03*
X217752395Y-113104395D03*
X220292395Y-113104395D03*
X222832395Y-113104395D03*
X225372395Y-113104395D03*
X227912395Y-113104395D03*
D17*
X230452395Y-113104395D03*
%TD*%
D16*
%TO.C,J1*%
X256872395Y-64804395D03*
X259412395Y-64804395D03*
X261952395Y-64804395D03*
X264492395Y-64804395D03*
X267032395Y-64804395D03*
D17*
X269572395Y-64804395D03*
%TD*%
M02*
